<svg width="380" height="314" viewBox="0 0 380 314" fill="none" xmlns="http://www.w3.org/2000/svg">
<g clip-path="url(#clip0_11_15)">
<path opacity="0.2" d="M257.31 1.30517C261.174 3.087 264.929 5.07142 268.688 7.06249C269.972 7.72759 271.258 8.39102 272.545 9.05273C275.096 10.3664 277.64 11.6916 280.181 13.0239C282.784 14.382 285.403 15.6991 288.042 16.9878C288.689 17.3048 289.336 17.6219 290.003 17.9486C291.792 18.8213 293.585 19.6871 295.378 20.5525C298 22 298 22 299 24C299.964 30.21 298.68 34.2095 295.785 39.668C295.05 41.0956 294.316 42.5241 293.583 43.9531C293.173 44.7485 292.763 45.544 292.341 46.3635C290.315 50.3467 288.358 54.3631 286.396 58.3783C284.149 62.9747 281.883 67.5618 279.618 72.1492C278.447 74.5255 277.281 76.9033 276.122 79.2849C274.425 82.763 272.71 86.2318 270.992 89.6992C270.48 90.7606 269.967 91.8221 269.439 92.9157C266.265 99.2664 263.513 103.744 257 107C252.434 107.344 249.452 106.62 245.34 104.664C244.299 104.177 243.258 103.69 242.186 103.187C241.114 102.672 240.042 102.156 238.938 101.625C236.801 100.616 234.664 99.6085 232.527 98.6016C231.116 97.926 231.116 97.926 229.676 97.2368C227.155 96.0717 224.578 95.0312 222 94C223.32 98.62 224.64 103.24 226 108C227.361 107.67 228.722 107.34 230.125 107C237.193 105.469 237.193 105.469 241 106C243.152 107.602 243.152 107.602 245 110C245.391 113.234 245.391 113.234 245.25 116.75C245.214 117.92 245.178 119.091 245.141 120.297C245.094 121.189 245.048 122.081 245 123C246.216 122.991 247.432 122.982 248.684 122.973C260.174 122.892 271.664 122.832 283.154 122.793C289.06 122.772 294.967 122.744 300.873 122.698C306.579 122.655 312.284 122.631 317.99 122.62C320.161 122.613 322.332 122.599 324.503 122.577C342.139 122.408 354.75 124.358 368.188 136.625C377.736 146.574 380.302 158.889 380.291 172.167C380.297 173.259 380.304 174.351 380.311 175.476C380.33 179.072 380.334 182.667 380.336 186.262C380.342 188.775 380.349 191.288 380.356 193.802C380.368 199.066 380.372 204.331 380.371 209.595C380.369 215.65 380.39 221.703 380.422 227.758C380.452 233.615 380.459 239.472 380.457 245.329C380.46 247.805 380.469 250.282 380.484 252.758C380.585 270.459 380.376 286.603 367.777 300.441C356.462 311.326 343.888 314.313 328.633 314.254C326.783 314.259 326.783 314.259 324.895 314.263C321.487 314.27 318.079 314.268 314.671 314.261C310.99 314.257 307.308 314.264 303.626 314.269C296.42 314.278 289.214 314.276 282.007 314.271C276.149 314.266 270.291 314.265 264.432 314.268C263.181 314.268 263.181 314.268 261.904 314.269C260.208 314.269 258.513 314.27 256.818 314.271C240.927 314.276 225.037 314.27 209.147 314.259C195.52 314.25 181.894 314.252 168.268 314.261C152.435 314.271 136.602 314.276 120.769 314.27C119.08 314.269 117.391 314.268 115.701 314.268C114.87 314.267 114.039 314.267 113.183 314.267C107.334 314.265 101.485 314.268 95.6362 314.273C88.5048 314.278 81.3735 314.277 74.2421 314.266C70.6056 314.261 66.9691 314.259 63.3326 314.265C59.3862 314.272 55.4399 314.264 51.4935 314.254C50.3502 314.258 49.2068 314.263 48.0287 314.267C34.4503 314.201 22.8906 310.928 12.6875 301.5C5.52569 293.899 -0.0943544 283.687 -0.147156 273.082C-0.154311 272.093 -0.161482 271.103 -0.168854 270.084C-0.171543 269.004 -0.174232 267.925 -0.177002 266.812C-0.183573 265.671 -0.19016 264.529 -0.19693 263.352C-0.216659 259.568 -0.228311 255.784 -0.238281 252C-0.242357 250.706 -0.246442 249.412 -0.250641 248.078C-0.269352 241.93 -0.283899 235.783 -0.292236 229.635C-0.301986 222.564 -0.328254 215.493 -0.368744 208.423C-0.402702 202.279 -0.414411 196.136 -0.418457 189.992C-0.423314 187.39 -0.434898 184.787 -0.453491 182.185C-0.47797 178.53 -0.476895 174.877 -0.469971 171.223C-0.482781 170.159 -0.495591 169.096 -0.508789 168C-0.415835 154.453 4.55045 143.973 13.7227 134.156C23.1209 125.447 34.3214 122.672 46.7461 122.805C48.2628 122.809 48.2628 122.809 49.8101 122.813C53.0193 122.824 56.2283 122.849 59.4375 122.875C61.6217 122.885 63.806 122.894 65.9902 122.902C71.3269 122.924 76.6634 122.958 82 123C81.67 122.34 81.34 121.68 81 121C80.9453 119.012 80.9453 119.012 81.125 116.687C81.1688 115.928 81.2127 115.169 81.2578 114.387C83.0489 108.627 88.7749 105.641 93.6875 102.687C94.6869 102.074 94.6869 102.074 95.7065 101.449C97.2377 100.51 98.7707 99.5743 100.305 98.6411C105.173 95.6767 110.024 92.6858 114.878 89.6989C116.597 88.6422 118.317 87.5878 120.038 86.5339C121.111 85.8756 122.184 85.2173 123.289 84.5391C124.245 83.9533 125.201 83.3676 126.186 82.7642C127.115 82.182 128.043 81.5998 129 81C130.647 80.1159 130.647 80.1159 132.327 79.2139C135.307 77.2202 135.307 77.2202 135.634 73.7954C135.583 72.5558 135.533 71.3162 135.48 70.0391C135.457 69.0368 135.457 69.0368 135.433 68.0142C135.38 65.8825 135.287 63.7551 135.188 61.625C135.104 59.5025 135.03 57.3806 134.974 55.2572C134.921 53.3253 134.838 51.3942 134.755 49.4634C135.081 44.8552 136.275 41.5341 139.777 38.4201C142.304 36.8061 144.394 36.1987 147.316 35.542C148.377 35.2987 149.439 35.0555 150.532 34.8049C151.674 34.5547 152.816 34.3046 153.992 34.0469C155.171 33.7824 156.35 33.5179 157.564 33.2454C160.056 32.6892 162.549 32.1381 165.043 31.5918C168.857 30.754 172.665 29.8937 176.473 29.0312C178.896 28.4934 181.319 27.9569 183.742 27.4219C184.88 27.1636 186.018 26.9054 187.19 26.6393C188.257 26.4087 189.325 26.1781 190.425 25.9404C191.359 25.7341 192.293 25.5277 193.255 25.3151C197.06 24.8783 200.585 25.0195 203.793 27.2422C207.639 31.7449 209.162 35.9806 210.457 41.7422C210.781 43.9555 210.781 43.9555 212 45C212.34 44.4805 212.679 43.961 213.029 43.4257C216.57 38.0156 220.125 32.6153 223.688 27.2205C225.016 25.2063 226.34 23.1897 227.66 21.1706C229.559 18.2673 231.471 15.3732 233.387 12.4805C233.973 11.5772 234.56 10.674 235.164 9.74345C240.954 1.05613 246.895 -2.8016 257.31 1.30517Z" fill="#7288FA"/>
<path d="M241 106C244.272 108.343 244.939 109.635 245.609 113.652C245.676 115.08 245.722 116.509 245.75 117.937C245.793 119.058 245.793 119.058 245.838 120.201C246.069 126.797 246.103 133.401 246 140C247.196 140.021 248.393 140.041 249.625 140.062C259.613 141.183 270.463 147.478 277 155C285.705 166.488 290.414 179.148 288.523 193.656C285.67 208.33 285.67 208.33 281 213C279.948 213.082 278.896 213.165 277.812 213.25C273.504 214.098 270.563 215.414 268 219C267.497 221.176 267.497 221.176 267.25 223.5C266.747 226.586 266.436 227.656 263.945 229.621C261.339 230.956 258.759 232.024 256 233C254.783 233.433 253.566 233.866 252.312 234.312C241.347 236.59 230.24 235.42 220 231C218.58 230.057 217.18 229.08 215.812 228.062C213.563 226.523 212.545 225.923 209.805 226.311C209.015 226.576 208.225 226.842 207.41 227.115C206.527 227.409 205.644 227.704 204.734 228.007C200.322 229.61 195.963 231.315 191.621 233.098C190.658 233.489 189.696 233.88 188.704 234.282C186.662 235.112 184.621 235.944 182.581 236.778C179.413 238.073 176.242 239.362 173.071 240.65C168.919 242.336 164.768 244.024 160.618 245.714C153.69 248.535 146.755 251.338 139.812 254.125C138.837 254.52 137.861 254.914 136.855 255.321C135.981 255.671 135.107 256.022 134.207 256.383C133.116 256.822 133.116 256.822 132.003 257.27C125.01 259.818 116.53 260.557 109.625 257.438C103.036 253.383 99.3246 247.531 96.6523 240.43C96.3625 239.695 96.0726 238.96 95.774 238.204C94.8154 235.766 93.8766 233.321 92.9375 230.875C92.2604 229.143 91.5818 227.411 90.9019 225.68C89.4147 221.89 87.935 218.096 86.4595 214.301C83.7866 207.438 81.0732 200.591 78.3555 193.746C77.8795 192.547 77.4034 191.348 76.913 190.113C75.9569 187.705 75.0007 185.297 74.0445 182.889C71.3645 176.136 68.6924 169.381 66.0197 162.625C65.6505 161.692 65.2813 160.759 64.9009 159.798C64.5805 158.988 64.2602 158.179 63.9301 157.344C63.2746 155.692 62.5872 154.052 61.8773 152.423C60.6027 148.903 61.0236 146.58 62 143C66.1539 138.805 71.1853 137.137 76.625 135.187C77.4835 134.863 78.342 134.539 79.2266 134.205C85.6188 131.873 85.6188 131.873 89 133C90.4387 134.731 90.4387 134.731 91.9258 136.973C92.7505 138.2 92.7505 138.2 93.5918 139.451C94.1596 140.313 94.7275 141.175 95.3125 142.062C99.3847 148.173 103.522 154.178 108 160C108.029 159.358 108.058 158.715 108.087 158.053C108.369 151.756 108.369 151.756 111.063 148.528C114.396 145.659 117.573 144.377 121.695 143.098C122.807 142.733 122.807 142.733 123.942 142.36C126.332 141.58 128.728 140.821 131.125 140.062C132.768 139.531 134.41 138.998 136.052 138.463C140.006 137.18 143.965 135.914 147.928 134.657C150.715 133.773 153.5 132.882 156.285 131.992C159.264 131.045 162.245 130.108 165.23 129.184C167.953 128.329 170.657 127.448 173.359 126.535C179.07 124.62 184.847 122.94 190.627 121.25C194.569 120.083 198.453 118.868 202.293 117.398C205.29 116.268 208.147 115.376 211.25 114.625C216.445 113.259 221.261 111.336 226.176 109.184C231.138 107.104 235.563 105.291 241 106Z" fill="#0280F1"/>
<path d="M257.31 1.30517C261.174 3.087 264.929 5.07142 268.688 7.06249C269.972 7.72759 271.258 8.39102 272.545 9.05273C275.096 10.3664 277.64 11.6916 280.181 13.0239C282.784 14.382 285.403 15.6991 288.042 16.9878C288.689 17.3048 289.336 17.6219 290.003 17.9486C291.792 18.8213 293.585 19.6871 295.378 20.5525C298 22 298 22 299 24C299.964 30.21 298.68 34.2095 295.785 39.668C295.05 41.0956 294.316 42.5241 293.583 43.9531C293.173 44.7485 292.763 45.544 292.341 46.3635C290.315 50.3467 288.358 54.3631 286.396 58.3783C284.149 62.9747 281.883 67.5618 279.618 72.1492C278.447 74.5255 277.281 76.9033 276.122 79.2849C274.425 82.763 272.71 86.2318 270.992 89.6992C270.48 90.7606 269.967 91.8221 269.439 92.9157C266.265 99.2664 263.513 103.744 257 107C252.434 107.344 249.452 106.62 245.34 104.664C244.299 104.177 243.258 103.69 242.186 103.187C241.114 102.672 240.042 102.156 238.938 101.625C236.801 100.616 234.664 99.6085 232.527 98.6016C231.116 97.926 231.116 97.926 229.676 97.2368C227.155 96.0717 224.578 95.0312 222 94C223.98 101.92 223.98 101.92 226 110C218.659 113.67 211.129 115.721 203.242 117.844C198.76 119.052 194.381 120.468 190 122C188.001 122.669 186.001 123.336 184 124C183.072 124.309 182.144 124.619 181.187 124.937C180.136 125.288 179.084 125.639 178 126C177.381 126.208 176.763 126.417 176.125 126.632C169.928 128.713 163.7 130.688 157.465 132.652C155.252 133.353 153.039 134.054 150.826 134.756C147.376 135.85 143.925 136.942 140.471 138.027C137.113 139.084 133.758 140.148 130.402 141.215C129.378 141.535 128.354 141.855 127.299 142.184C121.562 144.017 116.255 146.038 111 149C109.783 151.434 109.68 153.418 109.437 156.125C109.354 157.035 109.27 157.945 109.184 158.883C109.093 159.931 109.093 159.931 109 161C104.73 157.019 101.488 152.676 98.1875 147.875C97.131 146.354 96.0737 144.833 95.0156 143.312C94.5032 142.575 93.9908 141.838 93.4629 141.078C91.5083 138.301 89.4748 135.591 87.4375 132.875C82.904 126.604 80.503 122.111 81.1875 114.211C83.2437 108.616 88.8025 105.625 93.6875 102.687C94.3538 102.279 95.0201 101.87 95.7065 101.449C97.2377 100.51 98.7707 99.5743 100.305 98.6411C105.173 95.6767 110.024 92.6858 114.878 89.6989C116.597 88.6422 118.317 87.5878 120.038 86.5339C121.111 85.8756 122.184 85.2173 123.289 84.5391C124.245 83.9533 125.201 83.3676 126.186 82.7642C127.115 82.182 128.043 81.5998 129 81C130.098 80.4106 131.196 79.8211 132.327 79.2139C135.307 77.2202 135.307 77.2202 135.634 73.7954C135.583 72.5558 135.533 71.3162 135.48 70.0391C135.457 69.0368 135.457 69.0368 135.433 68.0142C135.38 65.8825 135.287 63.7551 135.187 61.625C135.104 59.5025 135.03 57.3806 134.974 55.2572C134.921 53.3253 134.838 51.3942 134.755 49.4634C135.081 44.8552 136.275 41.5341 139.777 38.4201C142.304 36.8061 144.394 36.1987 147.316 35.542C148.377 35.2987 149.439 35.0555 150.532 34.8049C151.674 34.5547 152.816 34.3046 153.992 34.0469C155.171 33.7824 156.35 33.5179 157.564 33.2454C160.056 32.6892 162.549 32.1381 165.043 31.5918C168.857 30.754 172.665 29.8937 176.473 29.0312C178.896 28.4934 181.319 27.9569 183.742 27.4219C184.88 27.1636 186.018 26.9054 187.19 26.6393C188.257 26.4087 189.325 26.1781 190.425 25.9404C191.826 25.6309 191.826 25.6309 193.255 25.3151C197.06 24.8783 200.585 25.0195 203.793 27.2422C207.639 31.7449 209.162 35.9806 210.457 41.7422C210.781 43.9555 210.781 43.9555 212 45C212.34 44.4805 212.679 43.961 213.029 43.4257C216.57 38.0156 220.125 32.6153 223.688 27.2205C225.016 25.2063 226.34 23.1897 227.66 21.1706C229.559 18.2673 231.471 15.3732 233.387 12.4805C233.973 11.5772 234.56 10.674 235.164 9.74345C240.954 1.05613 246.895 -2.8016 257.31 1.30517Z" fill="#E9E6F4"/>
<path d="M262 144C263.413 144.764 263.413 144.764 264.855 145.543C275.84 152.021 283.17 161.15 287.074 173.359C290.39 186.861 288.603 198.484 283 211C281 213 281 213 277.75 213.313C273.449 214.101 270.549 215.433 268 219C267.497 221.176 267.497 221.176 267.25 223.5C266.747 226.586 266.436 227.656 263.945 229.621C261.339 230.956 258.759 232.024 256 233C254.783 233.433 253.566 233.866 252.312 234.313C239.838 236.903 226.921 235.118 215.812 228.875C204.191 220.873 195.891 209.85 193 196C191.429 181.144 194.311 167.574 203.816 155.738C208.558 150.709 213.857 147.122 220 144C220.785 143.585 221.57 143.17 222.379 142.742C234.121 137.487 250.701 137.891 262 144Z" fill="#9895E1"/>
<path d="M254 1.0848e-05C259.084 2.00468 263.863 4.50685 268.688 7.06251C269.972 7.72761 271.258 8.39104 272.545 9.05274C275.096 10.3664 277.64 11.6916 280.181 13.0239C282.784 14.382 285.403 15.6992 288.042 16.9878C288.689 17.3049 289.336 17.6219 290.003 17.9486C291.792 18.8213 293.585 19.6871 295.378 20.5525C298 22 298 22 299 24C299.964 30.2101 298.68 34.2095 295.785 39.668C295.05 41.0956 294.316 42.5241 293.583 43.9531C293.173 44.7486 292.763 45.544 292.341 46.3635C290.315 50.3467 288.358 54.3631 286.396 58.3783C284.149 62.9747 281.883 67.5618 279.618 72.1492C278.447 74.5255 277.281 76.9033 276.122 79.2849C274.425 82.763 272.71 86.2318 270.992 89.6992C270.48 90.7607 269.967 91.8221 269.439 92.9157C266.265 99.2664 263.513 103.744 257 107C252.419 107.345 249.405 106.605 245.27 104.664C244.22 104.177 243.17 103.69 242.088 103.188C240.467 102.414 240.467 102.414 238.812 101.625C237.174 100.863 237.174 100.863 235.502 100.086C227.528 96.352 227.528 96.352 224 94C224.66 94 225.32 94 226 94C225.867 93.3825 225.734 92.7651 225.598 92.1289C224.551 87.1089 223.726 82.153 223.219 77.0508C222.93 74.3458 222.48 71.6768 222 69C226.343 69.6304 229.747 71.1961 233.656 73.1602C234.939 73.7951 236.221 74.4299 237.504 75.0645C239.507 76.064 241.508 77.0666 243.507 78.0735C245.449 79.0485 247.396 80.0111 249.344 80.9727C250.501 81.5528 251.658 82.133 252.85 82.7307C255.883 83.9528 257.78 84.2924 261 84C261 83.01 261 82.02 261 81C260.175 80.744 259.35 80.4881 258.499 80.2244C254.546 78.8411 250.806 77.176 247.012 75.4102C245.896 74.8924 245.896 74.8924 244.758 74.3641C243.196 73.6373 241.636 72.9086 240.076 72.178C237.682 71.0599 235.282 69.9567 232.881 68.8535C231.362 68.1441 229.843 67.4339 228.324 66.7227C227.604 66.3944 226.885 66.0662 226.143 65.7281C224.39 64.8964 222.689 63.9562 221 63C220.505 61.515 220.505 61.515 220 60C220.33 59.34 220.66 58.68 221 58C226.086 58.5551 230.157 60.3067 234.664 62.5977C235.379 62.9514 236.093 63.3051 236.829 63.6695C239.098 64.7931 241.362 65.9265 243.625 67.0625C246.613 68.5624 249.605 70.0519 252.602 71.5352C253.284 71.882 253.966 72.2289 254.669 72.5862C258.115 74.2909 260.073 75 264 75C264.495 73.515 264.495 73.515 265 72C263.84 71.6623 262.68 71.3245 261.484 70.9766C253.361 68.2697 245.779 64.125 238.127 60.3193C236.072 59.2993 234.013 58.2862 231.953 57.2734C231.329 56.9599 230.705 56.6464 230.062 56.3233C226.728 54.6846 223.685 53.527 220 53C219.486 51.6511 218.99 50.2954 218.5 48.9375C218.222 48.1834 217.943 47.4293 217.656 46.6524C216.405 41.5941 216.326 37.6462 219.032 33.1318C219.956 31.7377 220.898 30.3557 221.855 28.9844C222.354 28.2467 222.853 27.5091 223.367 26.7491C224.421 25.1976 225.483 23.6514 226.552 22.1104C228.183 19.7561 229.786 17.384 231.385 15.0078C232.415 13.4989 233.447 11.991 234.48 10.4844C234.958 9.77812 235.435 9.07185 235.927 8.34419C240.63 1.61918 245.468 -1.69003 254 1.0848e-05Z" fill="#E9E5F4"/>
<path d="M246 153C247.528 154.528 247.215 155.97 247.316 158.102C247.359 158.974 247.401 159.846 247.444 160.744C247.483 161.695 247.522 162.645 247.562 163.625C247.603 164.6 247.643 165.574 247.685 166.578C247.961 173.863 248.164 181.148 248.25 188.437C248.271 189.389 248.293 190.34 248.315 191.321C248.358 200.114 245.954 205.688 239.961 212.199C236.104 215.741 232.118 217.504 227.062 218.688C220.257 217.16 215.417 212.007 211.625 206.375C210.732 204.928 209.857 203.469 209 202C208.46 201.255 207.92 200.51 207.363 199.742C205.548 196.092 205.508 192.74 205.562 188.75C205.569 187.993 205.575 187.236 205.581 186.456C205.746 180.562 206.819 176.031 210 171C210.557 169.989 211.114 168.979 211.687 167.937C220.724 156.458 231.339 151.504 246 153Z" fill="#0270F2"/>
<path d="M154 99C156.875 101.438 156.875 101.438 159 104C159.722 104.825 160.444 105.65 161.188 106.5C164.382 110.906 165.278 114.585 165.25 120C165.258 121.516 165.258 121.516 165.266 123.063C164.972 126.311 164.644 128.17 163 131C160.438 132.243 158.203 133.115 155.508 133.93C154.765 134.169 154.023 134.409 153.258 134.655C151.689 135.157 150.117 135.649 148.542 136.132C146.134 136.872 143.737 137.644 141.34 138.422C139.813 138.906 138.286 139.387 136.758 139.867C136.041 140.097 135.324 140.327 134.586 140.564C128.232 142.489 128.232 142.489 125 141C119.708 136.369 115.319 131.12 114.762 123.926C114.585 115.303 114.9 109.573 120.73 103.07C130.518 93.6543 142.205 92.7258 154 99Z" fill="#EB6963"/>
<path d="M194 40C198.682 43.5367 199.827 46.6954 200.812 52.375C201.162 54.2738 201.162 54.2738 201.52 56.2109C201.992 59.9363 202.371 63.2587 202 67C199.118 70.6576 196.575 71.7155 192.098 72.7383C190.96 73.0006 189.822 73.2629 188.65 73.5332C187.466 73.7904 186.282 74.0475 185.062 74.3125C183.882 74.589 182.702 74.8655 181.486 75.1504C171.577 77.3767 171.577 77.3767 167 76C165.308 74.6986 163.643 73.3624 162 72C158.319 69.6276 156.069 68.781 151.801 69.4258C150.547 69.6153 149.292 69.8048 148 70C147.724 67.2504 147.478 64.5036 147.25 61.75C147.169 60.9727 147.088 60.1954 147.004 59.3945C146.567 53.7143 146.567 53.7143 148.449 50.6094C151.994 48.3726 155.507 47.4608 159.562 46.5C160.392 46.2935 161.221 46.087 162.075 45.8743C168.153 44.3837 174.258 43.0083 180.375 41.6875C181.165 41.516 181.954 41.3446 182.768 41.168C191.022 39.4525 191.022 39.4525 194 40Z" fill="#5DBFCD"/>
<path opacity="0.2" d="M247 154C248.434 154.456 249.866 154.918 251.297 155.383C252.094 155.639 252.892 155.896 253.714 156.161C261.722 159.101 267.712 165.816 272 173C275.531 181.24 275.432 192.57 272.098 200.914C267.183 210.254 260.009 216.523 250 219.875C242.223 221.91 235.641 221.223 228 219C229.877 217.514 231.747 216.142 233.836 214.969C239.428 211.798 244.604 207.549 246.563 201.164C247.029 198.854 247.12 196.77 247.114 194.415C247.113 193.064 247.113 193.064 247.113 191.686C247.108 190.722 247.103 189.759 247.098 188.766C247.096 187.772 247.095 186.779 247.093 185.756C247.088 182.587 247.075 179.419 247.062 176.25C247.057 174.1 247.053 171.951 247.049 169.801C247.038 164.534 247.021 159.267 247 154Z" fill="#E3E7FE"/>
<path d="M163 132C162.248 132.403 161.497 132.807 160.723 133.223C157.904 135.062 156.448 136.771 154.437 139.437C149.836 144.789 144.829 146.649 138 148C135.781 148.125 135.781 148.125 133.937 148.062C131.022 147.662 131.022 147.662 129.5 149.375C129.005 149.911 128.51 150.447 128 151C126.866 151.289 125.731 151.577 124.562 151.875C120.321 153.214 119.141 154.13 117 158C116.407 160.996 116.133 163.951 116 167C116.66 167 117.32 167 118 167C118.76 185.639 119.146 204.279 119.232 222.933C119.244 225.142 119.261 227.351 119.283 229.56C119.313 232.691 119.323 235.822 119.328 238.953C119.34 239.895 119.353 240.836 119.365 241.806C119.337 250.253 119.337 250.253 116 254C115.01 254 114.02 254 113 254C113.99 253.01 113.99 253.01 115 252C115.038 249.411 114.941 246.951 114.75 244.375C114.698 243.569 114.647 242.763 114.594 241.933C114.473 240.061 114.349 238.189 114.221 236.317C113.967 232.502 113.74 228.685 113.516 224.867C113.387 222.712 113.258 220.557 113.129 218.402C113.044 216.976 112.958 215.549 112.874 214.123C112.752 212.087 112.627 210.051 112.5 208.016C112.428 206.833 112.356 205.65 112.281 204.431C112.092 202.121 111.83 199.817 111.5 197.524C110.983 193.878 110.712 190.281 110.5 186.605C110.417 185.225 110.333 183.844 110.25 182.463C110.124 180.312 109.999 178.162 109.875 176.011C109.754 173.917 109.627 171.824 109.5 169.73C109.428 168.487 109.356 167.243 109.281 165.962C109.187 163.072 109.187 163.072 108 161C107.945 158.793 107.945 158.793 108.125 156.187C108.169 155.335 108.213 154.483 108.258 153.605C109.309 149.915 111.088 148.487 114 146C116.599 144.712 119.28 143.85 122.047 142.992C123.203 142.614 123.203 142.614 124.382 142.228C126.834 141.429 129.291 140.652 131.75 139.875C133.386 139.346 135.021 138.817 136.656 138.285C140.382 137.076 144.112 135.879 147.848 134.704C149.373 134.205 150.888 133.676 152.395 133.127C153.184 132.843 153.973 132.559 154.786 132.266C155.498 132.001 156.209 131.736 156.942 131.462C159.307 130.931 160.724 131.241 163 132Z" fill="#25AAF9"/>
<path d="M246 16C253.007 16.4064 258.587 19.3696 264.812 22.4375C265.861 22.9409 266.91 23.4443 267.99 23.9629C275.712 27.7115 275.712 27.7115 278 30C279.153 36.92 275.91 41.4592 272 47C271.34 47.66 270.68 48.32 270 49C266.043 48.6791 263.002 47.5967 260 45C258.982 42.0454 258.434 39.0901 258 36C255.69 36.99 253.38 37.98 251 39C249.807 35.1232 249 32.0838 249 28C243.555 30.475 243.555 30.475 238 33C238.155 25.8621 241.742 21.5253 246 16Z" fill="#F79791"/>
<path d="M295 228C298.492 230.8 301.584 234.028 304.75 237.187C305.638 238.039 306.526 238.89 307.441 239.768C308.281 240.601 309.12 241.434 309.984 242.293C310.755 243.051 311.525 243.809 312.319 244.591C314.432 247.619 314.42 249.38 314 253C312.758 255.082 312.758 255.082 311.125 256.812C310.324 257.688 310.324 257.688 309.508 258.582C306.993 260.947 304.539 261.627 301.077 261.571C296.275 260.251 292.963 255.865 289.625 252.375C288.806 251.567 287.988 250.759 287.145 249.926C280.423 243.071 280.423 243.071 280 237C282.779 231.62 288.719 225.603 295 228Z" fill="#FCD775"/>
<path d="M262 144C263.369 144.727 263.369 144.727 264.766 145.469C265.503 145.974 266.24 146.479 267 147C267.313 149.687 267.313 149.687 267 152C266.505 151.01 266.505 151.01 266 150C265.34 150 264.68 150 264 150C264 149.34 264 148.68 264 148C262.25 147.52 260.5 147.041 258.75 146.562C257.288 146.162 257.288 146.162 255.797 145.754C254.874 145.505 253.951 145.256 253 145C252.386 144.809 251.773 144.618 251.141 144.422C239.943 142.215 227.563 143.475 217.734 149.355C215.703 150.802 213.857 152.337 212 154C211.395 154.501 210.791 155.003 210.168 155.52C204.155 160.904 198.405 169.948 197.855 178.173C197.83 180.886 197.814 183.599 197.813 186.312C197.8 187.25 197.788 188.188 197.775 189.154C197.759 197.025 199.194 202.15 203.625 208.75C207 213.792 207 213.792 207 216C207.578 216.268 208.155 216.536 208.75 216.812C211.056 218.029 213.021 219.303 215 221C215 221.66 215 222.32 215 223C215.66 223 216.32 223 217 223C218.063 224.812 218.063 224.812 219 227C218.67 227.99 218.34 228.98 218 230C206.193 223.165 197.757 212.407 193.727 199.48C190.827 185.592 193.261 172.828 200.277 160.605C205.299 153.011 211.957 148.088 220 144C220.785 143.585 221.57 143.17 222.379 142.742C234.156 137.471 250.637 137.944 262 144Z" fill="#B3B3ED"/>
<path d="M139.375 109.688C140.682 109.671 141.989 109.654 143.336 109.637C147.138 110.014 149.051 110.61 152 113C153.305 119.393 150.301 124.681 147 130C145.004 132.335 144.284 132.922 141.25 133.75C135.015 132.311 132.229 125.958 129 120.812C127.782 117.386 127.902 115.45 129 112C132.753 109.498 134.898 109.701 139.375 109.688Z" fill="#F8EDF0"/>
<path d="M283.879 214.137C286.81 215.33 288.53 217.134 290.75 219.375C291.549 220.166 292.348 220.958 293.172 221.773C295 224 295 224 295 227C293.948 227.413 292.896 227.825 291.812 228.25C287.121 230.264 283.854 232.719 281 237C280.615 238.656 280.272 240.322 280 242C274.561 241.141 271.153 237.291 268 233C267.501 229.01 268.166 227.196 270.445 223.926C278.819 213.769 278.819 213.769 283.879 214.137Z" fill="#8581D1"/>
<path d="M115 165C115.66 165.66 116.32 166.32 117 167C117.33 167 117.66 167 118 167C118.76 185.639 119.146 204.279 119.232 222.933C119.244 225.142 119.261 227.351 119.283 229.56C119.313 232.691 119.323 235.822 119.328 238.953C119.34 239.895 119.353 240.836 119.365 241.806C119.337 250.253 119.337 250.253 116 254C115.01 254 114.02 254 113 254C113.99 253.01 113.99 253.01 115 252C115.009 249.186 114.897 246.487 114.688 243.688C114.579 241.975 114.471 240.263 114.363 238.551C114.304 237.651 114.244 236.75 114.182 235.823C113.872 231.009 113.62 226.193 113.375 221.375C113.297 219.998 113.297 219.998 113.218 218.593C113.174 217.745 113.131 216.897 113.086 216.023C113.025 214.893 113.025 214.893 112.962 213.74C113 212 113 212 114 211C114.237 208.308 114.422 205.635 114.562 202.938C114.606 202.179 114.649 201.42 114.693 200.639C114.8 198.759 114.9 196.88 115 195C114.34 195 113.68 195 113 195C113.142 192.791 113.289 190.583 113.438 188.375C113.559 186.53 113.559 186.53 113.684 184.648C114 181 114 181 114.566 177.84C114.99 175.068 114.913 172.944 114.5 170.188C114.295 168.797 114.118 167.401 114 166C114.33 165.67 114.66 165.34 115 165Z" fill="#159BF8"/>
<path d="M149 110C151.375 110.25 151.375 110.25 154 111C156.421 114.113 156.383 117.173 156 121C155.063 123.03 154.071 125.037 153 127C153 127.66 153 128.32 153 129C154.093 128.505 155.186 128.01 156.312 127.5C160 126 160 126 163 126C163.33 125.34 163.66 124.68 164 124C163.67 126.31 163.34 128.62 163 131C158.215 132.572 153.427 134.139 148.638 135.7C147.009 136.232 145.381 136.765 143.753 137.3C141.413 138.069 139.072 138.832 136.73 139.594C136.002 139.834 135.274 140.075 134.524 140.323C131.564 141.281 129.132 142 126 142C125.67 140.68 125.34 139.36 125 138C125.771 137.651 126.542 137.301 127.336 136.941C128.84 136.259 128.84 136.259 130.375 135.562C131.373 135.11 132.37 134.658 133.398 134.191C134.943 133.484 136.48 132.76 138 132C138.949 132.083 139.897 132.165 140.875 132.25C144.119 132.318 144.119 132.318 146.188 129.938C149.679 124.278 151.648 119.738 151 113C150.34 112.01 149.68 111.02 149 110Z" fill="#D74240"/>
<path d="M249 28C249.66 30.97 250.32 33.94 251 37C254.106 37 255.353 36.4606 258 35C259.609 38.648 260.559 42.0308 261 46C260.67 46.66 260.34 47.32 260 48C250.162 45.999 241.796 41.6464 233 37C235.652 34.1733 238.165 32.1124 241.562 30.25C242.327 29.822 243.091 29.3941 243.879 28.9531C246 28 246 28 249 28Z" fill="#A7C5F3"/>
<path d="M216 61C220.239 61.6337 223.608 63.0995 227.445 64.9844C228.056 65.2818 228.666 65.5793 229.295 65.8858C231.241 66.8351 233.183 67.7922 235.125 68.75C237.668 69.9971 240.213 71.2411 242.758 72.4844C243.373 72.7854 243.988 73.0864 244.621 73.3966C250.033 76.0376 255.499 78.5498 261 81C261 81.99 261 82.98 261 84C257.405 85.2911 255.954 84.9824 252.315 83.6006C250.892 82.9094 249.476 82.203 248.066 81.4844C247.311 81.1127 246.555 80.7411 245.777 80.3582C243.365 79.1684 240.964 77.9596 238.562 76.75C236.95 75.9506 235.338 75.1524 233.725 74.3555C230.097 72.5603 226.477 70.7523 222.861 68.9349C220.242 67.6193 217.621 66.3097 215 65C215.33 63.68 215.66 62.36 216 61Z" fill="#97A3E1"/>
<path d="M221 53C226.055 53.56 230.134 55.2734 234.629 57.5273C235.341 57.8763 236.053 58.2253 236.787 58.5849C239.049 59.6951 241.306 60.8158 243.562 61.9375C245.824 63.0535 248.086 64.1673 250.349 65.2794C251.753 65.9701 253.155 66.6634 254.556 67.3596C257.989 69.057 261.419 70.6406 265 72C264.67 73.32 264.34 74.64 264 76C259.152 75.4352 255.208 73.9114 250.879 71.7617C250.216 71.4397 249.553 71.1176 248.87 70.7858C247.474 70.106 246.08 69.4226 244.687 68.7356C242.576 67.6941 240.459 66.6635 238.342 65.6348C236.979 64.9694 235.616 64.3034 234.254 63.6367C233.631 63.3324 233.008 63.0281 232.366 62.7145C228.144 60.6289 224.068 58.3668 220 56C220.33 55.01 220.66 54.02 221 53Z" fill="#9CA9EC"/>
<path d="M226 44C231.158 44.6237 235.427 46.9755 240.02 49.2539C240.878 49.6742 241.737 50.0945 242.621 50.5276C245.354 51.8671 248.083 53.2147 250.812 54.5625C252.668 55.4738 254.524 56.3847 256.381 57.2949C260.924 59.5239 265.463 61.76 270 64C269.505 65.485 269.505 65.485 269 67C264.426 66.4251 260.804 65.1948 256.641 63.2344C256.051 62.9591 255.462 62.6838 254.855 62.4002C252.983 61.5237 251.117 60.6369 249.25 59.75C248.013 59.1699 246.776 58.5905 245.539 58.0117C238.642 54.7757 231.793 51.4497 225 48C225.33 46.68 225.66 45.36 226 44Z" fill="#9CA9EC"/>
<path d="M212 116C211.186 116.563 211.186 116.563 210.355 117.137C205.716 120.388 205.716 120.388 202.375 124.875C201.921 125.576 201.468 126.277 201 127C198.188 127.125 198.188 127.125 195 127C191.917 128.333 191.917 128.333 189 130C184.368 132 184.368 132 182 132C181.01 132.33 180.02 132.66 179 133C179.33 131.68 179.66 130.36 180 129C179.34 129 178.68 129 178 129C178 127.68 178 126.36 178 125C178.564 124.834 179.128 124.668 179.709 124.497C182.307 123.73 184.903 122.959 187.5 122.188C188.387 121.926 189.274 121.665 190.188 121.396C195.553 119.799 200.777 118.016 206 116C209 115 209 115 212 116Z" fill="#21A5F9"/>
<path d="M292.836 227.185C297.668 229.005 301.16 233.606 304.75 237.187C305.638 238.039 306.526 238.89 307.441 239.768C308.281 240.601 309.12 241.434 309.984 242.293C310.755 243.051 311.525 243.809 312.319 244.591C314.431 247.618 314.411 249.381 314 253C311.909 256.83 309.284 259.581 305.125 260.937C304.424 260.958 303.723 260.979 303 261C303.784 260.381 304.567 259.762 305.375 259.125C308.953 256.516 308.953 256.516 310.332 252.609C309.404 245.316 298.814 239.198 293.516 234.785C290.141 232.391 288.081 232 284 232C285.071 231.131 286.157 230.28 287.25 229.437C287.853 228.962 288.457 228.486 289.078 227.996C291 227 291 227 292.836 227.185Z" fill="#E6A51E"/>
<path d="M206 80C206.33 81.32 206.66 82.64 207 84C202.435 87.0436 197.388 87.5937 192.062 88.6875C190.965 88.9253 189.867 89.1632 188.736 89.4082C187.68 89.628 186.624 89.8478 185.535 90.0742C184.087 90.3772 184.087 90.3772 182.61 90.6863C180.045 90.9946 178.425 90.8179 176 90C175.67 88.68 175.34 87.36 175 86C179.227 84.991 183.457 83.9944 187.688 83C189.485 82.5708 189.485 82.5708 191.318 82.1328C192.475 81.8621 193.632 81.5914 194.824 81.3125C195.887 81.0611 196.95 80.8098 198.046 80.5508C200.783 80.0405 203.225 79.8923 206 80Z" fill="#9CA9EC"/>
<path d="M215 65C217.64 65.99 220.28 66.98 223 68C223.049 68.7129 223.098 69.4257 223.148 70.1602C223.487 74.5025 223.853 78.4888 225.062 82.6875C226.188 86.6655 226.144 89.8822 226 94C224.35 93.67 222.7 93.34 221 93C215 70.8932 215 70.8932 215 65Z" fill="#C2C0D9"/>
<path d="M224 153C224.33 154.32 224.66 155.64 225 157C224.481 157.364 223.961 157.727 223.426 158.102C215.327 163.94 210.159 170.523 207 180C206.733 183.093 206.556 186.186 206.379 189.285C206 192 206 192 204 194C202.506 186.53 202.47 178.857 206 172C206.135 171.181 206.271 170.363 206.41 169.52C207.127 166.456 208.338 165.005 210.438 162.688C211.055 161.99 211.672 161.293 212.309 160.574C214 159 214 159 216 159C216.33 158.01 216.66 157.02 217 156C218.98 156 220.96 156 223 156C223.33 155.01 223.66 154.02 224 153Z" fill="#8180D9"/>
<path d="M218 39C217.938 39.99 217.876 40.98 217.813 42C217.785 46.4699 219.329 49.8911 221 54C221 54.66 221 55.32 221 56C221.66 56.66 222.32 57.32 223 58C222.34 58 221.68 58 221 58C221 59.32 221 60.64 221 62C220.216 61.9381 219.433 61.8762 218.625 61.8125C217.326 61.9053 217.326 61.9053 216 62C215.34 62.99 214.68 63.98 214 65C213.492 62.9604 212.994 60.9182 212.5 58.875C212.082 57.1696 212.082 57.1696 211.656 55.4297C210.685 50.3548 210.294 47.2475 212.875 42.6875C215.791 39 215.791 39 218 39Z" fill="#C2C0D9"/>
<path d="M150 97C146.133 98.2658 142.268 98.1119 138.25 98.0625C137.553 98.058 136.855 98.0535 136.137 98.0488C134.424 98.0371 132.712 98.0192 131 98C131 98.66 131 99.32 131 100C129.391 101.516 129.391 101.516 127.25 103.25C122.823 107.011 119.866 110.402 118 116C117.494 122.746 117.412 128.072 121 134C120.67 134.66 120.34 135.32 120 136C114.672 128.265 114.288 122.29 115 113C116.666 106.337 121.412 101.738 127 98C134.635 94.2425 142.033 93.8132 150 97Z" fill="#F8A39D"/>
<path d="M77 164C81.9015 169.637 84.2269 177.378 86.9141 184.246C87.7196 186.289 88.552 188.321 89.3985 190.348C89.8651 191.491 90.3317 192.634 90.8125 193.812C91.2521 194.871 91.6917 195.929 92.1445 197.02C93.0539 200.188 92.9395 201.882 92 205C91.34 205 90.68 205 90 205C89.7693 204.345 89.5385 203.69 89.3008 203.016C87.5248 198.046 85.6618 193.155 83.5625 188.312C81.4922 183.404 79.7416 178.446 78.125 173.375C77.8976 172.675 77.6701 171.976 77.4358 171.255C75.8789 166.242 75.8789 166.242 77 164Z" fill="#1E91EC"/>
<path d="M209 92C208.875 93.875 208.875 93.875 208 96C203.911 97.5946 199.706 98.6271 195.438 99.625C194.343 99.8854 193.249 100.146 192.121 100.414C189.316 100.941 186.842 101.116 184 101C183.34 99.68 182.68 98.36 182 97C202.435 89.601 202.435 89.601 209 92Z" fill="#9DAAED"/>
<path d="M287 231C290.244 231.466 292.066 232.623 294.496 234.766C295.137 235.326 295.779 235.887 296.439 236.465C297.099 237.054 297.758 237.643 298.438 238.25C299.093 238.824 299.748 239.397 300.424 239.988C310.747 249.079 310.747 249.079 311.688 252.5C310.662 256.23 308.236 258.127 305 260C301.625 260.812 301.625 260.812 299 261C299.66 260.67 300.32 260.34 301 260C301 259.34 301 258.68 301 258C302.98 257.34 304.96 256.68 307 256C307.419 253.669 307.419 253.669 307 251C304.791 248.898 304.791 248.898 302 247C300.333 245.333 298.667 243.667 297 242C296.134 241.319 295.267 240.639 294.375 239.938C292.125 238.102 290.703 236.322 289 234C288.01 233.34 287.02 232.68 286 232C286.33 231.67 286.66 231.34 287 231Z" fill="#F9CC55"/>
<path d="M197 206C201.103 206.933 202.716 207.641 205.375 211C207 214 207 214 207 216C207.577 216.268 208.155 216.536 208.75 216.812C211.056 218.029 213.021 219.303 215 221C215 221.66 215 222.32 215 223C215.66 223 216.32 223 217 223C218.062 224.812 218.062 224.812 219 227C218.67 227.99 218.34 228.98 218 230C209.104 224.85 201.833 217.022 197 208C197 207.34 197 206.68 197 206Z" fill="#B0AEEB"/>
<path d="M284 183C285.231 186.684 284.908 189.915 284.562 193.75C284.461 194.92 284.359 196.091 284.254 197.297C284.17 198.189 284.086 199.081 284 200C284.99 199.34 285.98 198.68 287 198C286.486 203.136 284.782 209.218 281 213C278.667 213.041 276.333 213.042 274 213C274.41 212.12 274.82 211.239 275.242 210.332C275.781 209.171 276.32 208.009 276.875 206.812C277.409 205.664 277.942 204.515 278.492 203.332C280.701 198.451 282.221 194.632 282.562 189.25C282.9 184.1 282.9 184.1 284 183Z" fill="#8683D8"/>
<path d="M226 65C237.8 70.0619 249.422 75.4501 261 81C261 81.99 261 82.98 261 84C258.085 84.8097 256.539 85.2185 253.688 84.0625C253.131 83.7119 252.574 83.3613 252 83C252 82.01 252 81.02 252 80C243.42 76.04 234.84 72.08 226 68C226 67.01 226 66.02 226 65Z" fill="#9CA9EB"/>
<path d="M196 117C196 117.66 196 118.32 196 119C196.66 119.33 197.32 119.66 198 120C197.441 120.166 196.883 120.332 196.307 120.503C193.725 121.271 191.144 122.042 188.562 122.812C187.245 123.204 187.245 123.204 185.9 123.604C180.88 125.104 175.898 126.675 170.945 128.389C168.333 129.21 165.712 129.652 163 130C163.66 128.68 164.32 127.36 165 126C166.98 126 168.96 126 171 126C171 125.34 171 124.68 171 124C174.012 121.992 174.684 121.784 178.062 121.625C182.754 121.218 186.558 119.748 190.836 117.84C193 117 193 117 196 117Z" fill="#B1BADE"/>
<path d="M281 63C281.66 63 282.32 63 283 63C281.558 67.6769 279.669 72.0262 277.516 76.4102C277.178 77.1001 276.839 77.79 276.491 78.5008C275.777 79.9516 275.061 81.4013 274.343 82.8499C273.255 85.0533 272.186 87.2656 271.117 89.4785C270.418 90.8938 269.717 92.3086 269.016 93.7227C268.703 94.378 268.39 95.0333 268.068 95.7085C265.743 100.314 263.243 103.027 259 106C255.125 106.812 255.125 106.812 252 107C253 105 253 105 256.688 103.5C262.291 100.753 264.271 96.4165 267 91C267.309 90.3951 267.619 89.7902 267.938 89.167C270.005 85.1222 272.026 81.0558 274.027 76.9775C275.503 73.9773 277.002 70.9891 278.5 68C278.985 67.0306 279.469 66.0612 279.969 65.0625C280.309 64.3819 280.649 63.7013 281 63Z" fill="#D6D4EA"/>
<path d="M235 140C235 140.66 235 141.32 235 142C231.856 143.367 228.722 144.724 225.52 145.949C220.559 147.848 216.351 149.892 212 153C211.34 153.309 210.68 153.619 210 153.938C206.974 155.545 204.59 157.763 202 160C205.889 150.807 215.425 145.864 224.117 142.094C228.087 140.588 230.713 140 235 140Z" fill="#A7AFEE"/>
<path d="M89 133C90.1875 135.062 90.1875 135.062 91 137C89.4802 137.398 89.4802 137.398 87.9297 137.805C86.5781 138.161 85.2265 138.518 83.875 138.875C83.2098 139.049 82.5447 139.223 81.8594 139.402C77.852 140.463 73.9205 141.644 70 143C69.67 142.01 69.34 141.02 69 140C68.34 139.67 67.68 139.34 67 139C70.0985 137.797 73.2046 136.616 76.3125 135.437C77.1936 135.095 78.0746 134.753 78.9824 134.4C79.83 134.081 80.6775 133.762 81.5508 133.434C82.7212 132.986 82.7212 132.986 83.9153 132.529C86 132 86 132 89 133Z" fill="#0D98F1"/>
<path d="M275 221C275 224 275 224 274 227C274.457 229.212 274.457 229.212 275.312 231.5C275.577 232.273 275.841 233.047 276.113 233.844C277.013 236.232 277.013 236.232 279 239C278.34 239.99 277.68 240.98 277 242C273.738 239.196 270.675 236.378 268 233C267.78 228.443 268.492 226.762 271 223C273.125 221.812 273.125 221.812 275 221Z" fill="#B5AFE3"/>
<path d="M257 35C257.66 35.33 258.32 35.66 259 36C259.668 38.2148 259.668 38.2148 260.188 40.9375C260.456 42.2813 260.456 42.2813 260.73 43.6523C261 46 261 46 260 48C257.03 47.01 254.06 46.02 251 45C250.67 42.36 250.34 39.72 250 37C250.99 37.495 250.99 37.495 252 38C252.825 37.505 253.65 37.01 254.5 36.5C255.325 36.005 256.15 35.51 257 35Z" fill="#C1A0E3"/>
<path d="M291.5 229.063C295.244 230.065 296.686 230.945 299 234C299 234.66 299 235.32 299 236C299.66 236 300.32 236 301 236C301 236.66 301 237.32 301 238C301.66 238 302.32 238 303 238C303.412 238.722 303.825 239.444 304.25 240.188C305.874 242.798 306.802 243.709 309.188 245.438C312 248 312 248 312.375 251.313C312.251 252.199 312.127 253.086 312 254C311.741 253.416 311.482 252.832 311.215 252.23C307.204 244.866 296.697 235.006 288.859 232.246C286.817 231.934 286.817 231.934 284 232C286.621 229.379 287.715 228.995 291.5 229.063Z" fill="#F2B72B"/>
<path d="M151 116C152.006 118.643 152.084 119.767 151.109 122.473C150.661 123.327 150.212 124.182 149.75 125.062C149.312 125.92 148.873 126.777 148.422 127.66C147.099 129.837 145.979 131.409 144 133C141 133.438 141 133.438 138 133C136.125 131 136.125 131 135 129C136.021 129.217 136.021 129.217 137.062 129.438C141.672 128.751 144.149 125.533 147 122C147.709 120.688 148.389 119.36 149 118C149.66 118 150.32 118 151 118C151 117.34 151 116.68 151 116Z" fill="#E3C2CB"/>
<path d="M229 48C233.133 48.6311 236.434 50.0072 240.184 51.8359C241.946 52.6906 241.946 52.6906 243.744 53.5625C244.975 54.1666 246.206 54.7707 247.438 55.375C248.664 55.9719 249.892 56.5682 251.119 57.1641C256.428 59.747 261.723 62.3542 267 65C264.158 66.1771 263.027 66.0093 260.071 64.9678C258.957 64.437 257.843 63.9062 256.695 63.3594C256.094 63.0765 255.492 62.7937 254.872 62.5023C252.951 61.5957 251.038 60.6731 249.125 59.75C247.846 59.1435 246.566 58.538 245.285 57.9336C239.826 55.349 234.396 52.7129 229 50C229 49.34 229 48.68 229 48Z" fill="#98A3E0"/>
<path d="M137 132C139.007 132.287 141.009 132.619 143 133C142.67 133.66 142.34 134.32 142 135C142.66 135.66 143.32 136.32 144 137C141.564 137.839 139.127 138.671 136.688 139.5C135.652 139.858 135.652 139.858 134.596 140.223C131.611 141.232 129.173 142 126 142C125.67 140.68 125.34 139.36 125 138C125.782 137.651 126.565 137.301 127.371 136.941C128.383 136.486 129.395 136.031 130.438 135.562C131.447 135.11 132.456 134.658 133.496 134.191C135.886 133.226 135.886 133.226 137 132Z" fill="#BA4B52"/>
<path d="M191 113C191.66 113 192.32 113 193 113C193.66 114.32 194.32 115.64 195 117C188.679 120.311 183.132 122.155 176.051 122.754C173.803 122.954 173.803 122.954 171 124C171 124.66 171 125.32 171 126C169.02 126.33 167.04 126.66 165 127C165.956 124.562 166.469 123.271 168.848 122.059C169.579 121.854 170.309 121.649 171.062 121.438C171.863 121.2 172.664 120.963 173.488 120.719C174.317 120.482 175.146 120.244 176 120C183.112 117.789 183.112 117.789 190 115C190.33 114.34 190.66 113.68 191 113Z" fill="#D4D1E9"/>
<path d="M241 106C243.375 107.625 243.375 107.625 245 110C245.25 113.25 245.25 113.25 245 116C241.125 113.375 241.125 113.375 240 110C235.219 109.666 233.008 110.508 229 113C228.01 112.67 227.02 112.34 226 112C226 111.01 226 110.02 226 109C236.15 105.211 236.15 105.211 241 106Z" fill="#1DA1FA"/>
<path d="M153 136C153.99 136.33 154.98 136.66 156 137C151.174 143.971 146.158 146.034 138 148C137.34 148 136.68 148 136 148C136 147.34 136 146.68 136 146C136.66 146 137.32 146 138 146C138.165 145.402 138.33 144.804 138.5 144.188C140.528 141.229 142.64 140.822 145.969 139.73C148.214 139.003 148.214 139.003 150.812 137.25C151.534 136.838 152.256 136.425 153 136Z" fill="#129DF7"/>
<path d="M206 83C206 83.66 206 84.32 206 85C196.369 87.5467 186.892 89.7127 177 91C176.67 90.01 176.34 89.02 176 88C179.873 87.1567 183.749 86.3271 187.625 85.5C188.719 85.2615 189.814 85.023 190.941 84.7773C192.005 84.5517 193.068 84.3262 194.164 84.0937C195.138 83.8843 196.112 83.6748 197.116 83.459C200.124 82.9802 202.959 82.9211 206 83Z" fill="#929FE0"/>
<path d="M197 172C197.883 175.016 198.096 177.637 198.027 180.773C198.015 181.681 198.003 182.588 197.99 183.523C197.955 185.417 197.916 187.31 197.873 189.203C197.812 194.263 198.065 198.24 200 203C200.369 204.994 200.713 206.993 201 209C197.734 207.258 197.04 206.123 195.883 202.543C194.723 197.474 194.706 192.491 194.75 187.312C194.742 186.389 194.735 185.465 194.727 184.514C194.74 179.922 194.795 176.156 197 172Z" fill="#CAC8F0"/>
<path d="M112 155C113.863 162.097 114.56 168.754 113 176C112.34 176.66 111.68 177.32 111 178C109.171 174.341 109.531 170.004 109.281 165.969C109.187 163.074 109.187 163.074 108 161C108.312 158.438 108.312 158.438 109 156C111 155 111 155 112 155Z" fill="#2FB1FB"/>
<path d="M153 114C153.33 114 153.66 114 154 114C154.169 118.4 154.047 121.148 152 125C151.613 127.325 151.27 129.659 151 132C150.34 132 149.68 132 149 132C149 132.99 149 133.98 149 135C145.625 135.625 145.625 135.625 142 136C141.34 135.34 140.68 134.68 140 134C140.722 133.67 141.444 133.34 142.188 133C148.549 128.476 150.93 121.269 153 114Z" fill="#C73234"/>
<path d="M208 93C208 93.99 208 94.98 208 96C203.85 97.4398 199.715 98.6251 195.438 99.625C194.343 99.8854 193.249 100.146 192.121 100.414C189.316 100.941 186.842 101.116 184 101C183.34 99.68 182.68 98.36 182 97C183.155 97.0619 184.31 97.1238 185.5 97.1875C190.285 97.2028 194.815 96.4454 199.5 95.5625C200.578 95.3608 200.578 95.3608 201.678 95.155C205.13 94.7083 205.13 94.7083 208 93Z" fill="#8F9DE0"/>
<path d="M280 213C280.66 213.66 281.32 214.32 282 215C274.123 222.02 274.123 222.02 269.438 221.937C268.633 221.628 267.829 221.319 267 221C269.384 214.931 273.499 212.133 280 213Z" fill="#F2BB35"/>
<path d="M124.062 139.25C124.702 139.828 125.341 140.405 126 141C124.419 144.163 121.674 144.431 118.438 145.625C117.24 146.071 116.042 146.517 114.809 146.977C113.882 147.314 112.955 147.652 112 148C112.66 146.68 113.32 145.36 114 144C113.34 143.34 112.68 142.68 112 142C120.035 137.606 120.035 137.606 124.062 139.25Z" fill="#D5D2E9"/>
<path d="M218 39C217.938 39.99 217.876 40.98 217.812 42C217.785 46.4699 219.329 49.8911 221 54C221 54.66 221 55.32 221 56C221.66 56.66 222.32 57.32 223 58C222.34 58 221.68 58 221 58C221 59.32 221 60.64 221 62C220.01 61.67 219.02 61.34 218 61C217.01 54.07 216.02 47.14 215 40C217 39 217 39 218 39Z" fill="#D1CEE4"/>
<path d="M221 53C221.66 53 222.32 53 223 53C223.427 53.4318 223.853 53.8637 224.293 54.3086C229.078 59.0495 236.572 62.2627 243 64C243 64.33 243 64.66 243 65C237.223 65.5832 233.563 63.6433 228.625 61C227.889 60.6184 227.153 60.2369 226.395 59.8438C224.591 58.9067 222.795 57.9548 221 57C221 55.68 221 54.36 221 53Z" fill="#95A1E0"/>
<path d="M286 198C287.207 201.62 286.688 202.591 285.312 206.062C284.979 206.94 284.645 207.818 284.301 208.723C282.824 211.307 281.746 211.977 279 213C278 210 278 210 278.637 208.098C280.68 204.141 282.562 200.946 286 198Z" fill="#7470C5"/>
<path d="M216 61C219.934 61.562 222.832 62.5559 226 65C226 66.32 226 67.64 226 69C221.872 68.393 218.668 66.9619 215 65C215.33 63.68 215.66 62.36 216 61Z" fill="#909CDF"/>
<path d="M244 65C244.762 65.4099 245.524 65.8198 246.309 66.2422C252.544 69.4959 258.058 71.843 265 73C264.67 73.99 264.34 74.98 264 76C258.994 75.4532 255.028 73.7586 250.625 71.4375C249.664 70.9435 249.664 70.9435 248.684 70.4395C247.119 69.6336 245.559 68.8178 244 68C244 67.01 244 66.02 244 65Z" fill="#97A3E1"/>
<path d="M221 69C222.791 72.3735 223.407 75.2186 224 79C224.351 80.1344 224.701 81.2687 225.063 82.4375C226.029 86.1119 226.154 89.2191 226 93C225.34 92.67 224.68 92.34 224 92C221.514 84.4381 220.517 76.9256 221 69Z" fill="#D2CFE4"/>
<path d="M192 180C192.33 180 192.66 180 193 180C193 183.96 193 187.92 193 192C192.34 192 191.68 192 191 192C191.33 195.63 191.66 199.26 192 203C191.34 203.33 190.68 203.66 190 204C189.147 195.892 188.604 188.855 191 181C191.33 180.67 191.66 180.34 192 180Z" fill="#066EF0"/>
<path d="M224 153C224.33 154.32 224.66 155.64 225 157C224.481 157.364 223.961 157.727 223.426 158.102C218.889 161.372 215.416 164.579 212 169C211.34 169.66 210.68 170.32 210 171C209.592 167.618 209.739 166.346 211.828 163.578C212.627 162.81 213.427 162.042 214.25 161.25C215.039 160.471 215.828 159.693 216.641 158.891C218.963 157.03 220.21 156.667 223 156C223.33 155.01 223.66 154.02 224 153Z" fill="#7A7DD8"/>
<path d="M217 156C217.66 156.33 218.32 156.66 219 157C218.434 157.592 217.868 158.183 217.285 158.793C216.185 159.978 216.185 159.978 215.062 161.188C214.332 161.965 213.601 162.742 212.848 163.543C210.901 166.131 210.356 167.819 210 171C209.34 171 208.68 171 208 171C207.67 171.99 207.34 172.98 207 174C206.25 171.875 206.25 171.875 206 169C208.135 165.125 210.654 161.9 214 159C214.66 159 215.32 159 216 159C216.33 158.01 216.66 157.02 217 156Z" fill="#8A87DC"/>
<path d="M163 132C162.336 132.326 161.672 132.652 160.988 132.988C155.411 135.747 155.411 135.747 150 138.812C148 140 148 140 146 140C146.33 138.35 146.66 136.7 147 135C148.912 134.3 150.83 133.615 152.75 132.937C153.817 132.555 154.885 132.172 155.984 131.777C158.923 131.02 160.223 130.928 163 132Z" fill="#37A9EE"/>
<path d="M77 164C80.2532 167.741 82.4437 172.313 84 177C83.67 177.66 83.34 178.32 83 179C82.67 179 82.34 179 82 179C81.67 179.99 81.34 180.98 81 182C80.1368 179.378 79.2842 176.753 78.4375 174.125C78.0672 173.005 78.0672 173.005 77.6894 171.863C75.8867 166.227 75.8867 166.227 77 164Z" fill="#198CEB"/>
<path d="M266 221C266 223.31 266 225.62 266 228C265.01 228.33 264.02 228.66 263 229C262.67 228.34 262.34 227.68 262 227C259.03 227.66 256.06 228.32 253 229C252.67 228.34 252.34 227.68 252 227C253.887 226.598 253.887 226.598 255.812 226.188C259.051 225.388 260.893 224.693 263 222C265 221 265 221 266 221Z" fill="#8381D9"/>
<path d="M220 91C220.33 91.66 220.66 92.32 221 93C221.66 93.33 222.32 93.66 223 94C223.639 96.698 224.168 99.3337 224.625 102.062C224.759 102.821 224.893 103.58 225.031 104.361C225.362 106.24 225.682 108.12 226 110C225.01 110.33 224.02 110.66 223 111C222.496 108.417 221.996 105.834 221.5 103.25C221.357 102.52 221.214 101.791 221.066 101.039C220.411 97.6066 220 94.5083 220 91Z" fill="#D5D5EB"/>
<path d="M165 74C166.485 74.99 166.485 74.99 168 76C171.211 76.0236 171.211 76.0236 174.688 75.625C176.457 75.4587 176.457 75.4587 178.262 75.2891C179.165 75.1937 180.069 75.0983 181 75C180.67 75.66 180.34 76.32 180 77C176.938 77.625 176.938 77.625 174 78C173.67 79.65 173.34 81.3 173 83C171.25 82.875 171.25 82.875 169 82C165 76.7778 165 76.7778 165 74Z" fill="#D7D4E4"/>
<path d="M205 30C208.444 32.6547 209.174 36.1537 210.188 40.1875C210.362 40.8579 210.536 41.5283 210.716 42.219C211.893 46.9719 212.397 51.1388 212 56C209.679 52.519 209.257 49.9149 208.5 45.8125C207.494 40.4906 206.389 35.2359 205 30Z" fill="#D6D3E9"/>
<path d="M256 25C258.125 25.375 258.125 25.375 260 26C260.33 27.65 260.66 29.3 261 31C259.02 31.33 257.04 31.66 255 32C254.375 29.625 254.375 29.625 254 27C254.66 26.34 255.32 25.68 256 25Z" fill="#FBD37F"/>
<path d="M137 132C139.007 132.287 141.009 132.619 143 133C142.01 133.33 141.02 133.66 140 134C140 134.66 140 135.32 140 136C138.783 136.103 137.566 136.206 136.312 136.312C132.589 136.762 130.083 137.784 127 140C126.34 139.34 125.68 138.68 125 138C125.782 137.651 126.565 137.301 127.371 136.941C128.383 136.486 129.395 136.031 130.438 135.562C131.447 135.11 132.456 134.658 133.496 134.191C135.886 133.226 135.886 133.226 137 132Z" fill="#D25051"/>
<path d="M164 129C163 131 163 131 159.84 132.07C158.541 132.43 157.24 132.781 155.938 133.125C155.274 133.307 154.611 133.489 153.928 133.676C152.287 134.124 150.644 134.563 149 135C149 134.01 149 133.02 149 132C151.122 131.304 153.248 130.618 155.375 129.937C157.15 129.363 157.15 129.363 158.961 128.777C162 128 162 128 164 129Z" fill="#B8454B"/>
<path d="M182 98C182.66 98.66 183.32 99.32 184 100C186.571 100.648 186.571 100.648 189 101C189.125 103.875 189.125 103.875 189 107C188.34 107.66 187.68 108.32 187 109C186.155 107.926 185.324 106.84 184.5 105.75C184.036 105.147 183.572 104.543 183.094 103.922C182 102 182 102 182 98Z" fill="#D5D2E8"/>
<path d="M200 57C202.48 60.7206 202.463 62.598 202 67C200.25 69.5 200.25 69.5 198 71C195.75 70.75 195.75 70.75 194 70C194.804 69.5256 195.609 69.0513 196.438 68.5625C199.99 65.0098 199.886 61.8593 200 57Z" fill="#5DB2C0"/>
<path d="M163 124C163.33 125.32 163.66 126.64 164 128C162.586 128.508 161.169 129.006 159.75 129.5C158.567 129.918 158.567 129.918 157.359 130.344C155 131 155 131 151 131C151.66 129.68 152.32 128.36 153 127C153 127.66 153 128.32 153 129C154.093 128.505 155.186 128.01 156.312 127.5C160 126 160 126 163 126C163 125.34 163 124.68 163 124Z" fill="#D04849"/>
<path d="M287 231C289.83 231.283 290.82 231.801 292.75 233.938C294 236 294 236 294 238C294.598 238.248 295.196 238.495 295.812 238.75C298.286 240.164 299.434 241.651 301 244C295.849 241.711 292.302 238.503 289 234C288.01 233.34 287.02 232.68 286 232C286.33 231.67 286.66 231.34 287 231Z" fill="#FBD15C"/>
<path d="M272 221C270.125 225.75 270.125 225.75 269 228C268.01 228 267.02 228 266 228C266 225.69 266 223.38 266 221C268.491 219.755 269.411 220.223 272 221Z" fill="#F5D078"/>
<path d="M226 94C232.643 95.0065 237.966 97.5763 243 102C238.767 101.38 235.477 99.8948 231.688 97.9375C230.619 97.3896 229.55 96.8418 228.449 96.2773C227.641 95.8558 226.833 95.4343 226 95C226 94.67 226 94.34 226 94Z" fill="#D5D3E9"/>
<path d="M283 244C284.32 244.33 285.64 244.66 287 245C287 245.66 287 246.32 287 247C287.866 247.34 287.866 247.34 288.75 247.688C291.566 249.33 293.081 251.395 295 254C292 254 292 254 289.738 252.066C288.938 251.24 288.137 250.414 287.312 249.562C286.504 248.739 285.696 247.915 284.863 247.066C283 245 283 245 283 244Z" fill="#FDC467"/>
<path d="M123 139C123.99 139.99 124.98 140.98 126 142C119.565 144.97 119.565 144.97 113 148C113 147.01 113 146.02 113 145C113.638 144.734 114.276 144.469 114.934 144.195C115.76 143.842 116.586 143.489 117.438 143.125C118.261 142.777 119.085 142.429 119.934 142.07C122.157 141.176 122.157 141.176 123 139Z" fill="#B9BDDD"/>
<path d="M149 131C149 132.32 149 133.64 149 135C145.625 135.625 145.625 135.625 142 136C141.34 135.34 140.68 134.68 140 134C143.441 131.706 144.723 131 149 131Z" fill="#BA3437"/>
<path d="M145 124C145 127.659 144.242 129.139 142 132C139.438 132.5 139.438 132.5 137 132C136.34 131.01 135.68 130.02 135 129C136.083 129.155 136.083 129.155 137.188 129.312C141.12 128.876 142.463 126.899 145 124Z" fill="#EDD5DC"/>
<path d="M141.926 94.7617C144.788 95.0905 147.334 95.9335 150 97C146.39 98.1348 143.016 98.1002 139.25 98.0625C138.08 98.0535 136.909 98.0444 135.703 98.0352C134.811 98.0236 133.919 98.0119 133 98C135.741 94.7834 137.691 94.613 141.926 94.7617Z" fill="#F3918B"/>
<path d="M176 90C178.64 90 181.28 90 184 90C183.01 90.33 182.02 90.66 181 91C181 92.65 181 94.3 181 96C181.66 96.33 182.32 96.66 183 97C181.68 97 180.36 97 179 97C176 92.9286 176 92.9286 176 90Z" fill="#D3D1E8"/>
<path d="M90 135C90.33 135.66 90.66 136.32 91 137C89.5862 137.366 88.1688 137.717 86.75 138.063C85.9611 138.26 85.1722 138.457 84.3594 138.66C81.8961 139.015 80.344 138.769 78 138C79.2418 137.298 80.4939 136.614 81.75 135.938C82.7941 135.363 82.7941 135.363 83.8594 134.777C86.3888 133.859 87.5355 133.977 90 135Z" fill="#0990EF"/>
<path d="M303 243C304.146 243.979 305.292 244.958 306.438 245.938C307.076 246.483 307.714 247.028 308.371 247.59C309.27 248.368 310.159 249.159 311 250C311.041 251.666 311.043 253.334 311 255C310.01 255.495 310.01 255.495 309 256C308.752 254.928 308.505 253.855 308.25 252.75C306.985 248.954 305.893 247.604 303 245C303 244.34 303 243.68 303 243Z" fill="#F5C447"/>
<path d="M89 133C86.1454 135.326 83.5499 136.961 80 138C77.1875 137.625 77.1875 137.625 75 137C77.4141 135.391 79.3404 134.345 82 133.312C83.0209 132.905 83.0209 132.905 84.0625 132.488C86 132 86 132 89 133Z" fill="#1C9FF0"/>
<path d="M202 62C202.66 62.66 203.32 63.32 204 64C203.545 69.4545 203.545 69.4545 201 72C197.875 72.125 197.875 72.125 195 72C195.99 71.34 196.98 70.68 198 70C200.933 67.6308 201.499 65.7038 202 62Z" fill="#E4DAE4"/>
<path d="M208 216C209.172 216.783 210.338 217.577 211.5 218.375C212.475 219.036 212.475 219.036 213.469 219.711C213.974 220.136 214.479 220.562 215 221C215 221.66 215 222.32 215 223C213.35 223.33 211.7 223.66 210 224C208.235 220.912 208 219.767 208 216Z" fill="#A8A7EA"/>
<path d="M276.938 212.812C280 213 280 213 282 215C279.525 216.485 279.525 216.485 277 218C276.67 217.34 276.34 216.68 276 216C275.01 215.34 274.02 214.68 273 214C274 213 274 213 276.938 212.812Z" fill="#DEA127"/>
<path d="M201 169C201.66 169.33 202.32 169.66 203 170C201.273 173.619 199.523 176.876 197 180C197.458 176.531 197.891 173.326 199 170C199.66 169.67 200.32 169.34 201 169Z" fill="#A6A5E8"/>
<path d="M164 126C170.625 125.75 170.625 125.75 174 128C170.37 128.66 166.74 129.32 163 130C163.33 128.68 163.66 127.36 164 126Z" fill="#AFB8DC"/>
<path d="M216 61C216.66 61 217.32 61 218 61C218.33 62.32 218.66 63.64 219 65C219.99 65 220.98 65 222 65C222 65.66 222 66.32 222 67C219.03 66.505 219.03 66.505 216 66C215.438 64.0625 215.438 64.0625 215 62C215.33 61.67 215.66 61.34 216 61Z" fill="#7E88CB"/>
<path d="M309 257C303.585 261.062 303.585 261.062 300.625 260.75C300.089 260.502 299.553 260.255 299 260C299.66 260 300.32 260 301 260C301 259.34 301 258.68 301 258C306.75 255.875 306.75 255.875 309 257Z" fill="#F4C24B"/>
<path d="M125 147C126.65 147.33 128.3 147.66 130 148C128 151 128 151 125.875 151.688C125.256 151.791 124.637 151.894 124 152C123.67 151.34 123.34 150.68 123 150C123.66 149.01 124.32 148.02 125 147Z" fill="#129CF7"/>
<path d="M272 226C272.66 226.33 273.32 226.66 274 227C274.407 229.322 274.744 231.657 275 234C273.35 233.01 271.7 232.02 270 231C270.66 229.35 271.32 227.7 272 226Z" fill="#A2A1E5"/>
<path d="M186 124C183.69 125.65 181.38 127.3 179 129C178.67 127.68 178.34 126.36 178 125C183.75 122.875 183.75 122.875 186 124Z" fill="#37B1F9"/>
<path d="M180 122C179.01 122.66 178.02 123.32 177 124C175.981 124.981 174.976 125.977 174 127C173.01 126.67 172.02 126.34 171 126C171 125.34 171 124.68 171 124C174.435 121.71 175.985 121.822 180 122Z" fill="#C7C5E1"/>
<path d="M109 254C111.97 254.495 111.97 254.495 115 255C114.01 256.485 114.01 256.485 113 258C110.525 257.01 110.525 257.01 108 256C108.33 255.34 108.66 254.68 109 254Z" fill="#107AEF"/>
<path d="M286 230C288.31 230.33 290.62 230.66 293 231C293.33 232.32 293.66 233.64 294 235C293.464 234.484 292.928 233.969 292.375 233.438C289.995 231.674 289.995 231.674 286.75 232.312C285.842 232.539 284.935 232.766 284 233C284.66 232.01 285.32 231.02 286 230Z" fill="#EEBC41"/>
<path d="M266 221C266 223.31 266 225.62 266 228C265.01 228.33 264.02 228.66 263 229C263.66 227.35 264.32 225.7 265 224C263.68 223.67 262.36 223.34 261 223C264.875 221 264.875 221 266 221Z" fill="#837CCA"/>
<path d="M276 218C277.32 218.33 278.64 218.66 280 219C277.378 221.154 275.356 222.401 272 223C273.32 221.35 274.64 219.7 276 218Z" fill="#9D96CF"/>
<path d="M153 136C153.99 136.33 154.98 136.66 156 137C155.67 137.66 155.34 138.32 155 139C154.34 138.67 153.68 138.34 153 138C153 137.34 153 136.68 153 136ZM150 137C150.99 137.33 151.98 137.66 153 138C152.01 138.99 151.02 139.98 150 141C149.34 140.67 148.68 140.34 148 140C148.66 139.01 149.32 138.02 150 137Z" fill="#20A8FA"/>
<path d="M250 37C250.99 37.33 251.98 37.66 253 38C253 40.31 253 42.62 253 45C252.34 45 251.68 45 251 45C250.67 42.36 250.34 39.72 250 37Z" fill="#968FCD"/>
</g>
<defs>
<clipPath id="clip0_11_15">
<rect width="380" height="314" fill="white"/>
</clipPath>
</defs>
</svg>
