<svg width="66" height="62" viewBox="0 0 66 62" fill="none" xmlns="http://www.w3.org/2000/svg">
<path d="M38 36H61C63.7614 36 66 38.2386 66 41V52C66 57.5228 61.5228 62 56 62H48C42.4772 62 38 57.5228 38 52V36Z" fill="#FEFEFE"/>
<path d="M0 41C0 38.2386 2.23858 36 5 36H28V52C28 57.5228 23.5228 62 18 62H10C4.47715 62 0 57.5228 0 52V41Z" fill="#FEFEFE"/>
<path d="M0 10C0 4.47715 4.47715 0 10 0H18C23.5228 0 28 4.47715 28 10V26H5C2.23858 26 0 23.7614 0 21V10Z" fill="#FEFEFE"/>
<path d="M38 10C38 4.47715 42.4772 0 48 0H56C61.5228 0 66 4.47715 66 10V21C66 23.7614 63.7614 26 61 26H38V10Z" fill="#FEFEFE"/>
</svg>
