<svg width="18" height="23" viewBox="0 0 18 23" fill="none" xmlns="http://www.w3.org/2000/svg">
<path d="M14 4.89362C14 7.59629 11.7614 9.78723 9 9.78723C6.23858 9.78723 4 7.59629 4 4.89362C4 2.19095 6.23858 0 9 0C11.7614 0 14 2.19095 14 4.89362Z" fill="white"/>
<path d="M18 23C18 19.7553 17.0518 16.6436 15.364 14.3492C13.6761 12.0549 11.3869 10.766 9 10.766C6.61305 10.766 4.32387 12.0549 2.63604 14.3492C0.948212 16.6436 3.60419e-07 19.7553 0 23L18 23Z" fill="white"/>
<path d="M12.2 4.8C12.4387 4.8 12.6676 4.70518 12.8364 4.5364C13.0052 4.36761 13.1 4.13869 13.1 3.9C13.1 3.66131 13.0052 3.43239 12.8364 3.2636C12.6676 3.09482 12.4387 3 12.2 3L9.05 3.9L12.2 4.8Z" fill="#131314"/>
<path d="M5.9 3C5.66131 3 5.43239 3.09482 5.2636 3.2636C5.09482 3.43239 5 3.66131 5 3.9C5 4.13869 5.09482 4.36761 5.2636 4.5364C5.43239 4.70518 5.66131 4.8 5.9 4.8L9.05 3.9L5.9 3Z" fill="#131314"/>
</svg>
