<svg width="268" height="96" viewBox="0 0 268 96" fill="none" xmlns="http://www.w3.org/2000/svg">
<path d="M91.5139 68.3776C91.5139 53.2574 79.7583 41 65.2569 41C50.7556 41 39 53.2574 39 68.3776C39 83.4979 50.7556 95.7553 65.2569 95.7553C79.7583 95.7553 91.5139 83.4979 91.5139 68.3776Z" fill="#7288FA"/>
<path opacity="0.2" d="M39.3855 0C17.6335 0 0 18.3861 0 41.0665C0 63.7468 17.6334 82.133 39.3854 82.133C61.1373 82.133 78.7708 63.7469 78.7708 41.0666C78.7708 18.3862 61.1374 0 39.3855 0Z" fill="#7288FA"/>
<path d="M148.543 63H141.952L151.994 33.9091H159.92L169.949 63H163.358L156.071 40.5568H155.844L148.543 63ZM148.131 51.5653H163.699V56.3665H148.131V51.5653ZM180.361 63.3551C178.704 63.3551 177.203 62.929 175.858 62.0767C174.523 61.215 173.462 59.9508 172.676 58.2841C171.9 56.608 171.511 54.553 171.511 52.1193C171.511 49.6193 171.914 47.5407 172.719 45.8835C173.524 44.2169 174.594 42.9716 175.929 42.1477C177.274 41.3144 178.746 40.8977 180.347 40.8977C181.568 40.8977 182.586 41.1061 183.401 41.5227C184.224 41.9299 184.887 42.4413 185.389 43.0568C185.901 43.6629 186.289 44.2595 186.554 44.8466H186.739V33.9091H192.776V63H186.81V59.5057H186.554C186.27 60.1117 185.867 60.7131 185.347 61.3097C184.835 61.8968 184.168 62.3845 183.344 62.7727C182.529 63.161 181.535 63.3551 180.361 63.3551ZM182.278 58.5398C183.254 58.5398 184.078 58.2746 184.75 57.7443C185.432 57.2045 185.953 56.4517 186.312 55.4858C186.682 54.5199 186.866 53.3883 186.866 52.0909C186.866 50.7936 186.687 49.6667 186.327 48.7102C185.967 47.7538 185.446 47.0152 184.764 46.4943C184.082 45.9735 183.254 45.7131 182.278 45.7131C181.284 45.7131 180.446 45.983 179.764 46.5227C179.082 47.0625 178.566 47.8106 178.216 48.767C177.866 49.7235 177.69 50.8314 177.69 52.0909C177.69 53.3598 177.866 54.482 178.216 55.4574C178.576 56.4233 179.092 57.1809 179.764 57.7301C180.446 58.2699 181.284 58.5398 182.278 58.5398ZM197.751 63V41.1818H203.518V45.0312H203.773C204.228 43.7528 204.986 42.7443 206.046 42.0057C207.107 41.267 208.376 40.8977 209.853 40.8977C211.349 40.8977 212.623 41.2718 213.674 42.0199C214.725 42.7585 215.426 43.7623 215.776 45.0312H216.004C216.449 43.7812 217.254 42.7822 218.418 42.0341C219.593 41.2765 220.98 40.8977 222.58 40.8977C224.616 40.8977 226.269 41.5464 227.538 42.8438C228.816 44.1316 229.455 45.9593 229.455 48.3267V63H223.418V49.5199C223.418 48.3078 223.096 47.3987 222.452 46.7926C221.808 46.1866 221.004 45.8835 220.038 45.8835C218.939 45.8835 218.082 46.2339 217.467 46.9347C216.851 47.6259 216.543 48.5398 216.543 49.6761V63H210.677V49.392C210.677 48.322 210.369 47.4697 209.754 46.8352C209.147 46.2008 208.347 45.8835 207.353 45.8835C206.681 45.8835 206.075 46.054 205.535 46.3949C205.004 46.7263 204.583 47.1951 204.271 47.8011C203.958 48.3977 203.802 49.0985 203.802 49.9034V63H197.751ZM234.235 63V41.1818H240.286V63H234.235ZM237.275 38.3693C236.375 38.3693 235.603 38.071 234.96 37.4744C234.325 36.8684 234.008 36.1439 234.008 35.3011C234.008 34.4678 234.325 33.7528 234.96 33.1562C235.603 32.5502 236.375 32.2472 237.275 32.2472C238.174 32.2472 238.942 32.5502 239.576 33.1562C240.22 33.7528 240.542 34.4678 240.542 35.3011C240.542 36.1439 240.22 36.8684 239.576 37.4744C238.942 38.071 238.174 38.3693 237.275 38.3693ZM251.185 50.3864V63H245.134V41.1818H250.901V45.0312H251.156C251.639 43.7623 252.449 42.7585 253.585 42.0199C254.722 41.2718 256.099 40.8977 257.719 40.8977C259.234 40.8977 260.555 41.2292 261.682 41.892C262.809 42.5549 263.685 43.5019 264.31 44.733C264.935 45.9545 265.247 47.4129 265.247 49.108V63H259.196V50.1875C259.205 48.8523 258.865 47.8106 258.173 47.0625C257.482 46.3049 256.53 45.9261 255.318 45.9261C254.504 45.9261 253.784 46.1013 253.159 46.4517C252.544 46.8021 252.061 47.3134 251.71 47.9858C251.369 48.6487 251.194 49.4489 251.185 50.3864Z" fill="#7288FA"/>
</svg>
