<svg width="362" height="90" viewBox="0 0 362 90" fill="none" xmlns="http://www.w3.org/2000/svg">
<path opacity="0.2" d="M39.3855 0H39.3854C17.6334 0 0 18.3861 0 41.0665V41.0666C0 63.7469 17.6334 82.133 39.3854 82.133H39.3855C61.1374 82.133 78.7708 63.7469 78.7708 41.0666V41.0665C78.7708 18.3861 61.1374 0 39.3855 0Z" fill="white"/>
<path d="M86.9763 61.5997C86.9763 46.4795 75.2207 34.2221 60.7193 34.2221C46.218 34.2221 34.4624 46.4795 34.4624 61.5997C34.4624 76.72 46.218 88.9774 60.7193 88.9774C75.2207 88.9774 86.9763 76.72 86.9763 61.5997Z" fill="white"/>
<path d="M114.4 42C114.4 39.2533 115.013 36.8 116.24 34.64C117.493 32.4533 119.187 30.76 121.32 29.56C123.48 28.3333 125.893 27.72 128.56 27.72C131.68 27.72 134.413 28.52 136.76 30.12C139.107 31.72 140.747 33.9333 141.68 36.76H135.24C134.6 35.4267 133.693 34.4267 132.52 33.76C131.373 33.0933 130.04 32.76 128.52 32.76C126.893 32.76 125.44 33.1467 124.16 33.92C122.907 34.6667 121.92 35.7333 121.2 37.12C120.507 38.5067 120.16 40.1333 120.16 42C120.16 43.84 120.507 45.4667 121.2 46.88C121.92 48.2667 122.907 49.3467 124.16 50.12C125.44 50.8667 126.893 51.24 128.52 51.24C130.04 51.24 131.373 50.9067 132.52 50.24C133.693 49.5467 134.6 48.5333 135.24 47.2H141.68C140.747 50.0533 139.107 52.28 136.76 53.88C134.44 55.4533 131.707 56.24 128.56 56.24C125.893 56.24 123.48 55.64 121.32 54.44C119.187 53.2133 117.493 51.52 116.24 49.36C115.013 47.2 114.4 44.7467 114.4 42ZM152.063 26.4V56H146.463V26.4H152.063ZM167.436 56.36C165.303 56.36 163.383 55.8933 161.676 54.96C159.969 54 158.623 52.6533 157.636 50.92C156.676 49.1867 156.196 47.1867 156.196 44.92C156.196 42.6533 156.689 40.6533 157.676 38.92C158.689 37.1867 160.063 35.8533 161.796 34.92C163.529 33.96 165.463 33.48 167.596 33.48C169.729 33.48 171.663 33.96 173.396 34.92C175.129 35.8533 176.489 37.1867 177.476 38.92C178.489 40.6533 178.996 42.6533 178.996 44.92C178.996 47.1867 178.476 49.1867 177.436 50.92C176.423 52.6533 175.036 54 173.276 54.96C171.543 55.8933 169.596 56.36 167.436 56.36ZM167.436 51.48C168.449 51.48 169.396 51.24 170.276 50.76C171.183 50.2533 171.903 49.5067 172.436 48.52C172.969 47.5333 173.236 46.3333 173.236 44.92C173.236 42.8133 172.676 41.2 171.556 40.08C170.463 38.9333 169.116 38.36 167.516 38.36C165.916 38.36 164.569 38.9333 163.476 40.08C162.409 41.2 161.876 42.8133 161.876 44.92C161.876 47.0267 162.396 48.6533 163.436 49.8C164.503 50.92 165.836 51.48 167.436 51.48ZM204.024 33.84V56H198.384V53.2C197.664 54.16 196.717 54.92 195.544 55.48C194.397 56.0133 193.144 56.28 191.784 56.28C190.05 56.28 188.517 55.92 187.184 55.2C185.85 54.4533 184.797 53.3733 184.024 51.96C183.277 50.52 182.904 48.8133 182.904 46.84V33.84H188.504V46.04C188.504 47.8 188.944 49.16 189.824 50.12C190.704 51.0533 191.904 51.52 193.424 51.52C194.97 51.52 196.184 51.0533 197.064 50.12C197.944 49.16 198.384 47.8 198.384 46.04V33.84H204.024ZM208.109 44.84C208.109 42.6 208.549 40.6133 209.429 38.88C210.336 37.1467 211.562 35.8133 213.109 34.88C214.656 33.9467 216.376 33.48 218.269 33.48C219.709 33.48 221.082 33.8 222.389 34.44C223.696 35.0533 224.736 35.88 225.509 36.92V26.4H231.189V56H225.509V52.72C224.816 53.8133 223.842 54.6933 222.589 55.36C221.336 56.0267 219.882 56.36 218.229 56.36C216.362 56.36 214.656 55.88 213.109 54.92C211.562 53.96 210.336 52.6133 209.429 50.88C208.549 49.12 208.109 47.1067 208.109 44.84ZM225.549 44.92C225.549 43.56 225.282 42.4 224.749 41.44C224.216 40.4533 223.496 39.7067 222.589 39.2C221.682 38.6667 220.709 38.4 219.669 38.4C218.629 38.4 217.669 38.6533 216.789 39.16C215.909 39.6667 215.189 40.4133 214.629 41.4C214.096 42.36 213.829 43.5067 213.829 44.84C213.829 46.1733 214.096 47.3467 214.629 48.36C215.189 49.3467 215.909 50.1067 216.789 50.64C217.696 51.1733 218.656 51.44 219.669 51.44C220.709 51.44 221.682 51.1867 222.589 50.68C223.496 50.1467 224.216 49.4 224.749 48.44C225.282 47.4533 225.549 46.28 225.549 44.92ZM261.738 28.08L251.498 56H244.698L234.458 28.08H240.458L248.138 50.28L255.778 28.08H261.738ZM263.656 44.84C263.656 42.6 264.096 40.6133 264.976 38.88C265.883 37.1467 267.096 35.8133 268.616 34.88C270.163 33.9467 271.883 33.48 273.776 33.48C275.429 33.48 276.869 33.8133 278.096 34.48C279.349 35.1467 280.349 35.9867 281.096 37V33.84H286.736V56H281.096V52.76C280.376 53.8 279.376 54.6667 278.096 55.36C276.843 56.0267 275.389 56.36 273.736 56.36C271.869 56.36 270.163 55.88 268.616 54.92C267.096 53.96 265.883 52.6133 264.976 50.88C264.096 49.12 263.656 47.1067 263.656 44.84ZM281.096 44.92C281.096 43.56 280.829 42.4 280.296 41.44C279.763 40.4533 279.043 39.7067 278.136 39.2C277.229 38.6667 276.256 38.4 275.216 38.4C274.176 38.4 273.216 38.6533 272.336 39.16C271.456 39.6667 270.736 40.4133 270.176 41.4C269.643 42.36 269.376 43.5067 269.376 44.84C269.376 46.1733 269.643 47.3467 270.176 48.36C270.736 49.3467 271.456 50.1067 272.336 50.64C273.243 51.1733 274.203 51.44 275.216 51.44C276.256 51.44 277.229 51.1867 278.136 50.68C279.043 50.1467 279.763 49.4 280.296 48.44C280.829 47.4533 281.096 46.28 281.096 44.92ZM313.125 33.84V56H307.485V53.2C306.765 54.16 305.819 54.92 304.645 55.48C303.499 56.0133 302.245 56.28 300.885 56.28C299.152 56.28 297.619 55.92 296.285 55.2C294.952 54.4533 293.899 53.3733 293.125 51.96C292.379 50.52 292.005 48.8133 292.005 46.84V33.84H297.605V46.04C297.605 47.8 298.045 49.16 298.925 50.12C299.805 51.0533 301.005 51.52 302.525 51.52C304.072 51.52 305.285 51.0533 306.165 50.12C307.045 49.16 307.485 47.8 307.485 46.04V33.84H313.125ZM324.251 26.4V56H318.651V26.4H324.251ZM336.303 38.44V49.16C336.303 49.9067 336.477 50.4533 336.823 50.8C337.197 51.12 337.81 51.28 338.663 51.28H341.263V56H337.743C333.023 56 330.663 53.7067 330.663 49.12V38.44H328.023V33.84H330.663V28.36H336.303V33.84H341.263V38.44H336.303Z" fill="white"/>
</svg>
