<svg width="323" height="82" viewBox="0 0 323 82" fill="none" xmlns="http://www.w3.org/2000/svg">
<g clip-path="url(#clip0_1_6)">
<path opacity="0.2" d="M37.4162 0H37.4161C16.7518 0 0 16.7518 0 37.4161V37.4162C0 58.0805 16.7518 74.8323 37.4161 74.8323H37.4162C58.0805 74.8323 74.8323 58.0805 74.8323 37.4162V37.4161C74.8323 16.7518 58.0805 0 37.4162 0Z" fill="#FA7275"/>
<path d="M82.6275 56.1242C82.6275 42.348 71.4596 31.1801 57.6834 31.1801C43.9071 31.1801 32.7393 42.348 32.7393 56.1242C32.7393 69.9004 43.9071 81.0683 57.6834 81.0683C71.4596 81.0683 82.6275 69.9004 82.6275 56.1242Z" fill="#FA7275"/>
</g>
<path d="M108.31 52.903C108.31 50.3335 108.883 48.0384 110.031 46.0177C111.204 43.9721 112.788 42.388 114.783 41.2654C116.804 40.1178 119.062 39.5441 121.556 39.5441C124.475 39.5441 127.032 40.2925 129.227 41.7893C131.423 43.2861 132.957 45.3566 133.83 48.001H127.806C127.207 46.7536 126.359 45.8181 125.261 45.1945C124.188 44.5708 122.941 44.259 121.519 44.259C119.997 44.259 118.638 44.6207 117.44 45.3442C116.268 46.0427 115.345 47.0405 114.671 48.3378C114.022 49.635 113.698 51.1567 113.698 52.903C113.698 54.6243 114.022 56.1461 114.671 57.4682C115.345 58.7655 116.268 59.7758 117.44 60.4993C118.638 61.1978 119.997 61.547 121.519 61.547C122.941 61.547 124.188 61.2352 125.261 60.6115C126.359 59.9629 127.207 59.0149 127.806 57.7676H133.83C132.957 60.4369 131.423 62.5199 129.227 64.0167C127.057 65.4886 124.5 66.2245 121.556 66.2245C119.062 66.2245 116.804 65.6632 114.783 64.5406C112.788 63.3931 111.204 61.809 110.031 59.7883C108.883 57.7676 108.31 55.4725 108.31 52.903ZM143.544 38.3092V66H138.305V38.3092H143.544ZM157.925 66.3368C155.929 66.3368 154.133 65.9002 152.536 65.0271C150.94 64.129 149.68 62.8692 148.757 61.2477C147.859 59.6261 147.41 57.7551 147.41 55.6347C147.41 53.5142 147.871 51.6432 148.794 50.0217C149.742 48.4001 151.027 47.1528 152.649 46.2797C154.27 45.3816 156.079 44.9325 158.074 44.9325C160.07 44.9325 161.879 45.3816 163.5 46.2797C165.122 47.1528 166.394 48.4001 167.317 50.0217C168.265 51.6432 168.739 53.5142 168.739 55.6347C168.739 57.7551 168.253 59.6261 167.28 61.2477C166.332 62.8692 165.035 64.129 163.388 65.0271C161.767 65.9002 159.946 66.3368 157.925 66.3368ZM157.925 61.7715C158.873 61.7715 159.758 61.547 160.582 61.098C161.43 60.624 162.103 59.9255 162.602 59.0025C163.101 58.0794 163.351 56.9568 163.351 55.6347C163.351 53.6639 162.827 52.1546 161.779 51.1068C160.756 50.0341 159.496 49.4978 158 49.4978C156.503 49.4978 155.243 50.0341 154.22 51.1068C153.222 52.1546 152.723 53.6639 152.723 55.6347C152.723 57.6054 153.21 59.1272 154.183 60.1999C155.181 61.2477 156.428 61.7715 157.925 61.7715ZM192.153 45.2693V66H186.876V63.3806C186.203 64.2787 185.317 64.9897 184.22 65.5135C183.147 66.0125 181.974 66.2619 180.702 66.2619C179.081 66.2619 177.646 65.9252 176.399 65.2516C175.152 64.5531 174.166 63.5428 173.443 62.2206C172.744 60.8735 172.395 59.2769 172.395 57.4308V45.2693H177.634V56.6824C177.634 58.3289 178.045 59.6012 178.869 60.4993C179.692 61.3724 180.814 61.809 182.236 61.809C183.683 61.809 184.818 61.3724 185.642 60.4993C186.465 59.6012 186.876 58.3289 186.876 56.6824V45.2693H192.153ZM195.975 55.5598C195.975 53.4643 196.386 51.6058 197.209 49.9842C198.058 48.3627 199.205 47.1154 200.652 46.2422C202.099 45.3691 203.708 44.9325 205.479 44.9325C206.826 44.9325 208.111 45.2319 209.333 45.8306C210.556 46.4044 211.529 47.1777 212.252 48.1507V38.3092H217.566V66H212.252V62.9316C211.604 63.9544 210.693 64.7776 209.521 65.4013C208.348 66.0249 206.988 66.3368 205.442 66.3368C203.696 66.3368 202.099 65.8877 200.652 64.9897C199.205 64.0916 198.058 62.8318 197.209 61.2102C196.386 59.5638 195.975 57.6803 195.975 55.5598ZM212.29 55.6347C212.29 54.3624 212.04 53.2772 211.541 52.3791C211.042 51.4561 210.369 50.7576 209.521 50.2836C208.672 49.7847 207.762 49.5352 206.789 49.5352C205.816 49.5352 204.918 49.7722 204.095 50.2462C203.271 50.7202 202.598 51.4187 202.074 52.3417C201.575 53.2398 201.326 54.3125 201.326 55.5598C201.326 56.8072 201.575 57.9048 202.074 58.8528C202.598 59.7758 203.271 60.4868 204.095 60.9857C204.943 61.4847 205.841 61.7341 206.789 61.7341C207.762 61.7341 208.672 61.4971 209.521 61.0231C210.369 60.5242 211.042 59.8257 211.541 58.9276C212.04 58.0046 212.29 56.9069 212.29 55.6347ZM246.145 39.8808L236.565 66H230.204L220.624 39.8808H226.237L233.422 60.6489L240.569 39.8808H246.145ZM247.939 55.5598C247.939 53.4643 248.35 51.6058 249.173 49.9842C250.022 48.3627 251.157 47.1154 252.579 46.2422C254.026 45.3691 255.635 44.9325 257.406 44.9325C258.953 44.9325 260.3 45.2444 261.447 45.868C262.62 46.4917 263.555 47.2775 264.254 48.2255V45.2693H269.53V66H264.254V62.969C263.58 63.9419 262.645 64.7527 261.447 65.4013C260.275 66.0249 258.915 66.3368 257.368 66.3368C255.622 66.3368 254.026 65.8877 252.579 64.9897C251.157 64.0916 250.022 62.8318 249.173 61.2102C248.35 59.5638 247.939 57.6803 247.939 55.5598ZM264.254 55.6347C264.254 54.3624 264.004 53.2772 263.505 52.3791C263.006 51.4561 262.333 50.7576 261.485 50.2836C260.636 49.7847 259.726 49.5352 258.753 49.5352C257.78 49.5352 256.882 49.7722 256.059 50.2462C255.236 50.7202 254.562 51.4187 254.038 52.3417C253.539 53.2398 253.29 54.3125 253.29 55.5598C253.29 56.8072 253.539 57.9048 254.038 58.8528C254.562 59.7758 255.236 60.4868 256.059 60.9857C256.907 61.4847 257.805 61.7341 258.753 61.7341C259.726 61.7341 260.636 61.4971 261.485 61.0231C262.333 60.5242 263.006 59.8257 263.505 58.9276C264.004 58.0046 264.254 56.9069 264.254 55.6347ZM294.217 45.2693V66H288.941V63.3806C288.267 64.2787 287.382 64.9897 286.284 65.5135C285.211 66.0125 284.039 66.2619 282.767 66.2619C281.145 66.2619 279.711 65.9252 278.463 65.2516C277.216 64.5531 276.231 63.5428 275.507 62.2206C274.809 60.8735 274.459 59.2769 274.459 57.4308V45.2693H279.698V56.6824C279.698 58.3289 280.11 59.6012 280.933 60.4993C281.756 61.3724 282.879 61.809 284.301 61.809C285.748 61.809 286.883 61.3724 287.706 60.4993C288.529 59.6012 288.941 58.3289 288.941 56.6824V45.2693H294.217ZM304.625 38.3092V66H299.386V38.3092H304.625ZM315.9 49.5726V59.6012C315.9 60.2997 316.063 60.8111 316.387 61.1354C316.736 61.4348 317.31 61.5844 318.108 61.5844H320.54V66H317.247C312.832 66 310.624 63.8546 310.624 59.5638V49.5726H308.154V45.2693H310.624V40.1428H315.9V45.2693H320.54V49.5726H315.9Z" fill="#FA7275"/>
<defs>
<clipPath id="clip0_1_6">
<rect width="83" height="82" fill="white"/>
</clipPath>
</defs>
</svg>
