<svg width="366" height="96" viewBox="0 0 366 96" fill="none" xmlns="http://www.w3.org/2000/svg">
<path d="M91.5139 68.3776C91.5139 53.2574 79.7583 41 65.2569 41C50.7556 41 39 53.2574 39 68.3776C39 83.4979 50.7556 95.7553 65.2569 95.7553C79.7583 95.7553 91.5139 83.4979 91.5139 68.3776Z" fill="#7288FA"/>
<path opacity="0.2" d="M39.3855 0C17.6335 0 0 18.3861 0 41.0665C0 63.7468 17.6334 82.133 39.3854 82.133C61.1373 82.133 78.7708 63.7469 78.7708 41.0666C78.7708 18.3862 61.1374 0 39.3855 0Z" fill="#7288FA"/>
<path d="M128.543 63H121.952L131.994 33.9091H139.92L149.949 63H143.358L136.071 40.5568H135.844L128.543 63ZM128.131 51.5653H143.699V56.3665H128.131V51.5653ZM160.361 63.3551C158.704 63.3551 157.203 62.929 155.858 62.0767C154.523 61.215 153.462 59.9508 152.676 58.2841C151.9 56.608 151.511 54.553 151.511 52.1193C151.511 49.6193 151.914 47.5407 152.719 45.8835C153.524 44.2169 154.594 42.9716 155.929 42.1477C157.274 41.3144 158.746 40.8977 160.347 40.8977C161.568 40.8977 162.586 41.1061 163.401 41.5227C164.224 41.9299 164.887 42.4413 165.389 43.0568C165.901 43.6629 166.289 44.2595 166.554 44.8466H166.739V33.9091H172.776V63H166.81V59.5057H166.554C166.27 60.1117 165.867 60.7131 165.347 61.3097C164.835 61.8968 164.168 62.3845 163.344 62.7727C162.529 63.161 161.535 63.3551 160.361 63.3551ZM162.278 58.5398C163.254 58.5398 164.078 58.2746 164.75 57.7443C165.432 57.2045 165.953 56.4517 166.312 55.4858C166.682 54.5199 166.866 53.3883 166.866 52.0909C166.866 50.7936 166.687 49.6667 166.327 48.7102C165.967 47.7538 165.446 47.0152 164.764 46.4943C164.082 45.9735 163.254 45.7131 162.278 45.7131C161.284 45.7131 160.446 45.983 159.764 46.5227C159.082 47.0625 158.566 47.8106 158.216 48.767C157.866 49.7235 157.69 50.8314 157.69 52.0909C157.69 53.3598 157.866 54.482 158.216 55.4574C158.576 56.4233 159.092 57.1809 159.764 57.7301C160.446 58.2699 161.284 58.5398 162.278 58.5398ZM177.751 63V41.1818H183.518V45.0312H183.773C184.228 43.7528 184.986 42.7443 186.046 42.0057C187.107 41.267 188.376 40.8977 189.853 40.8977C191.349 40.8977 192.623 41.2718 193.674 42.0199C194.725 42.7585 195.426 43.7623 195.776 45.0312H196.004C196.449 43.7812 197.254 42.7822 198.418 42.0341C199.593 41.2765 200.98 40.8977 202.58 40.8977C204.616 40.8977 206.269 41.5464 207.538 42.8438C208.816 44.1316 209.455 45.9593 209.455 48.3267V63H203.418V49.5199C203.418 48.3078 203.096 47.3987 202.452 46.7926C201.808 46.1866 201.004 45.8835 200.038 45.8835C198.939 45.8835 198.082 46.2339 197.467 46.9347C196.851 47.6259 196.543 48.5398 196.543 49.6761V63H190.677V49.392C190.677 48.322 190.369 47.4697 189.754 46.8352C189.147 46.2008 188.347 45.8835 187.353 45.8835C186.681 45.8835 186.075 46.054 185.535 46.3949C185.004 46.7263 184.583 47.1951 184.271 47.8011C183.958 48.3977 183.802 49.0985 183.802 49.9034V63H177.751ZM214.235 63V41.1818H220.286V63H214.235ZM217.275 38.3693C216.375 38.3693 215.603 38.071 214.96 37.4744C214.325 36.8684 214.008 36.1439 214.008 35.3011C214.008 34.4678 214.325 33.7528 214.96 33.1562C215.603 32.5502 216.375 32.2472 217.275 32.2472C218.174 32.2472 218.942 32.5502 219.576 33.1562C220.22 33.7528 220.542 34.4678 220.542 35.3011C220.542 36.1439 220.22 36.8684 219.576 37.4744C218.942 38.071 218.174 38.3693 217.275 38.3693ZM231.185 50.3864V63H225.134V41.1818H230.901V45.0312H231.156C231.639 43.7623 232.449 42.7585 233.585 42.0199C234.722 41.2718 236.099 40.8977 237.719 40.8977C239.234 40.8977 240.555 41.2292 241.682 41.892C242.809 42.5549 243.685 43.5019 244.31 44.733C244.935 45.9545 245.247 47.4129 245.247 49.108V63H239.196V50.1875C239.205 48.8523 238.865 47.8106 238.173 47.0625C237.482 46.3049 236.53 45.9261 235.318 45.9261C234.504 45.9261 233.784 46.1013 233.159 46.4517C232.544 46.8021 232.061 47.3134 231.71 47.9858C231.369 48.6487 231.194 49.4489 231.185 50.3864ZM259.388 63V33.9091H270.865C273.071 33.9091 274.951 34.3305 276.504 35.1733C278.057 36.0066 279.241 37.1667 280.055 38.6534C280.879 40.1307 281.291 41.8352 281.291 43.767C281.291 45.6989 280.875 47.4034 280.041 48.8807C279.208 50.358 278 51.5085 276.419 52.3324C274.847 53.1562 272.944 53.5682 270.709 53.5682H263.393V48.6392H269.714C270.898 48.6392 271.874 48.4356 272.641 48.0284C273.417 47.6117 273.995 47.0388 274.374 46.3097C274.762 45.571 274.956 44.7235 274.956 43.767C274.956 42.8011 274.762 41.9583 274.374 41.2386C273.995 40.5095 273.417 39.946 272.641 39.5483C271.864 39.1411 270.879 38.9375 269.686 38.9375H265.538V63H259.388ZM290.808 63.4119C289.416 63.4119 288.176 63.1705 287.087 62.6875C285.998 62.1951 285.136 61.4706 284.501 60.5142C283.876 59.5483 283.564 58.3456 283.564 56.9062C283.564 55.6941 283.786 54.6761 284.232 53.8523C284.677 53.0284 285.283 52.3655 286.05 51.8636C286.817 51.3617 287.688 50.983 288.663 50.7273C289.648 50.4716 290.68 50.2917 291.76 50.1875C293.029 50.0549 294.052 49.9318 294.828 49.8182C295.605 49.6951 296.168 49.5152 296.518 49.2784C296.869 49.0417 297.044 48.6913 297.044 48.2273V48.142C297.044 47.2424 296.76 46.5464 296.192 46.054C295.633 45.5616 294.838 45.3153 293.805 45.3153C292.716 45.3153 291.85 45.5568 291.206 46.0398C290.562 46.5133 290.136 47.1098 289.928 47.8295L284.331 47.375C284.615 46.0492 285.174 44.9034 286.007 43.9375C286.84 42.9621 287.915 42.214 289.232 41.6932C290.557 41.1629 292.091 40.8977 293.834 40.8977C295.046 40.8977 296.206 41.0398 297.314 41.3239C298.431 41.608 299.421 42.0483 300.283 42.6449C301.154 43.2415 301.84 44.0085 302.342 44.946C302.844 45.8741 303.095 46.9867 303.095 48.2841V63H297.357V59.9744H297.186C296.836 60.6562 296.367 61.2576 295.78 61.7784C295.193 62.2898 294.487 62.6922 293.663 62.9858C292.839 63.2699 291.888 63.4119 290.808 63.4119ZM292.541 59.2358C293.431 59.2358 294.217 59.0606 294.899 58.7102C295.581 58.3504 296.116 57.8674 296.504 57.2614C296.893 56.6553 297.087 55.9687 297.087 55.2017V52.8864C296.897 53.0095 296.637 53.1231 296.305 53.2273C295.983 53.322 295.619 53.4119 295.212 53.4972C294.804 53.5729 294.397 53.6439 293.99 53.7102C293.583 53.767 293.214 53.8191 292.882 53.8665C292.172 53.9706 291.552 54.1364 291.021 54.3636C290.491 54.5909 290.079 54.8987 289.786 55.2869C289.492 55.6657 289.345 56.1392 289.345 56.7074C289.345 57.5312 289.643 58.161 290.24 58.5966C290.846 59.0227 291.613 59.2358 292.541 59.2358ZM313.841 50.3864V63H307.79V41.1818H313.557V45.0312H313.812C314.295 43.7623 315.105 42.7585 316.241 42.0199C317.378 41.2718 318.756 40.8977 320.375 40.8977C321.89 40.8977 323.211 41.2292 324.338 41.892C325.465 42.5549 326.341 43.5019 326.966 44.733C327.591 45.9545 327.903 47.4129 327.903 49.108V63H321.852V50.1875C321.862 48.8523 321.521 47.8106 320.83 47.0625C320.138 46.3049 319.187 45.9261 317.974 45.9261C317.16 45.9261 316.44 46.1013 315.815 46.4517C315.2 46.8021 314.717 47.3134 314.366 47.9858C314.026 48.6487 313.85 49.4489 313.841 50.3864ZM342.616 63.4261C340.371 63.4261 338.44 62.9716 336.82 62.0625C335.21 61.1439 333.97 59.8466 333.099 58.1705C332.228 56.4848 331.792 54.4915 331.792 52.1903C331.792 49.946 332.228 47.9763 333.099 46.2812C333.97 44.5862 335.196 43.2652 336.778 42.3182C338.369 41.3712 340.234 40.8977 342.374 40.8977C343.814 40.8977 345.154 41.1297 346.394 41.5938C347.644 42.0483 348.733 42.7348 349.661 43.6534C350.599 44.572 351.328 45.7273 351.849 47.1193C352.37 48.5019 352.63 50.1212 352.63 51.9773V53.6392H334.207V49.8892H346.934C346.934 49.018 346.745 48.2462 346.366 47.5739C345.987 46.9015 345.461 46.3759 344.789 45.9972C344.126 45.6089 343.354 45.4148 342.474 45.4148C341.555 45.4148 340.741 45.6278 340.031 46.054C339.33 46.4706 338.781 47.0341 338.383 47.7443C337.985 48.4451 337.781 49.2263 337.772 50.0881V53.6534C337.772 54.733 337.971 55.6657 338.369 56.4517C338.776 57.2377 339.349 57.8438 340.087 58.2699C340.826 58.696 341.702 58.9091 342.715 58.9091C343.388 58.9091 344.003 58.8144 344.562 58.625C345.121 58.4356 345.599 58.1515 345.996 57.7727C346.394 57.3939 346.697 56.9299 346.906 56.3807L352.502 56.75C352.218 58.0947 351.636 59.2689 350.755 60.2727C349.884 61.267 348.757 62.0436 347.374 62.6023C346.001 63.1515 344.415 63.4261 342.616 63.4261ZM362.63 33.9091V63H356.579V33.9091H362.63Z" fill="#7288FA"/>
</svg>
